<svg version="1.1" xmlns="http://www.w3.org/2000/svg" viewBox="174.8 488 857.2 224">
<path d="M0 0 C2.24940295 -0.08119503 4.49964871 -0.13927819 6.75 -0.1875 C8.00296875 -0.22230469 9.2559375 -0.25710938 10.546875 -0.29296875 C14.17852825 0.01514663 15.56766601 0.32920189 18 3 C18.8039548 5.69530999 18.81419502 8.16647402 19 11 C19.44730469 10.45730469 19.89460937 9.91460938 20.35546875 9.35546875 C20.96003906 8.64003906 21.56460938 7.92460938 22.1875 7.1875 C23.07501953 6.12595703 23.07501953 6.12595703 23.98046875 5.04296875 C27.19962382 1.78645405 29.75416082 0.14368811 34.36572266 -0.38818359 C35.6191748 -0.39156738 36.87262695 -0.39495117 38.1640625 -0.3984375 C38.83795013 -0.40130768 39.51183777 -0.40417786 40.20614624 -0.40713501 C41.62311652 -0.40916744 43.04011538 -0.40369518 44.45703125 -0.39111328 C46.62563512 -0.37499528 48.79238982 -0.39101334 50.9609375 -0.41015625 C52.34114994 -0.40817465 53.72136123 -0.4043327 55.1015625 -0.3984375 C56.35275879 -0.39505371 57.60395508 -0.39166992 58.89306641 -0.38818359 C62 0 62 0 63.81713867 1.04174805 C65.64149502 4.06200857 66.17760985 7.30921144 66.82421875 10.73046875 C66.97534622 11.48088943 67.12647369 12.23131012 67.28218079 13.00447083 C67.76140936 15.3968156 68.22462636 17.79194278 68.6875 20.1875 C69.01001659 21.81205799 69.33357221 23.43641007 69.65820312 25.06054688 C70.45086916 29.03807764 71.22919215 33.0181781 72 37 C74.10628002 33.84057998 75.43282203 30.78763834 76.8984375 27.28515625 C77.46575191 25.94579662 78.03347295 24.60660917 78.6015625 23.26757812 C79.49003469 21.16494243 80.37553289 19.0612218 81.25390625 16.9543457 C82.10585357 14.91497292 82.96993595 12.88109337 83.8359375 10.84765625 C84.34688965 9.63086182 84.8578418 8.41406738 85.38427734 7.16040039 C86.97822589 4.04259079 88.22050375 2.11289537 91 0 C93.29003906 -0.45410156 93.29003906 -0.45410156 95.765625 -0.390625 C97.09980469 -0.37128906 97.09980469 -0.37128906 98.4609375 -0.3515625 C99.84152344 -0.30128906 99.84152344 -0.30128906 101.25 -0.25 C102.18585938 -0.23195313 103.12171875 -0.21390625 104.0859375 -0.1953125 C106.39167015 -0.14825673 108.69530945 -0.08253713 111 0 C104.00919009 15.27621425 96.30897051 30.17143828 88.57521057 45.07933044 C85.61698662 50.78931134 82.69475695 56.51709624 79.78125 62.25 C78.48499843 64.79518587 77.18832138 67.34015456 75.89154053 69.8850708 C75.05091568 71.53767986 74.21223324 73.19127847 73.37554932 74.84588623 C72.20610903 77.15776935 71.02959334 79.46592281 69.8515625 81.7734375 C69.50540894 82.46252197 69.15925537 83.15160645 68.8026123 83.86157227 C65.51418437 90.27097882 65.51418437 90.27097882 63 92 C60.82348633 92.34057617 60.82348633 92.34057617 58.33203125 92.29296875 C57.43935547 92.28330078 56.54667969 92.27363281 55.62695312 92.26367188 C54.69818359 92.23853516 53.76941406 92.21339844 52.8125 92.1875 C51.87212891 92.17396484 50.93175781 92.16042969 49.96289062 92.14648438 C47.64134962 92.11113096 45.32096347 92.06178674 43 92 C43.99426825 89.95553591 44.99587017 87.91463871 46 85.875 C46.30236572 85.23103271 46.60473145 84.58706543 46.91625977 83.92358398 C48.54566554 80.54204012 50.06270197 77.92663773 52.52734375 75.04296875 C56.32042936 70.35232966 58.28792487 66.98374129 57.69189453 60.80712891 C56.15292336 52.75401718 53.76208703 44.95103845 51.29296875 37.14306641 C49.99823115 33.0381817 48.81340011 28.9072165 47.65625 24.76171875 C45.81097619 18.1624262 43.91888302 11.57829845 42 5 C41.01 9.95 40.02 14.9 39 20 C36.04073413 20.98642196 34.6456865 20.97680923 31.625 20.75 C28.2423246 20.75 27.19885329 20.87345699 24.25 22.75 C17.4186858 32.61745384 15.89632806 43.14420744 14.6875 54.75 C14.51921213 56.23716498 14.34929968 57.72414705 14.17773438 59.2109375 C13.76343873 62.8055026 13.38251632 66.40135482 13 70 C5.74 70 -1.52 70 -9 70 C-8.18285999 62.88728445 -7.36522464 55.77462919 -6.54638672 48.66210938 C-6.26876214 46.24938126 -5.99141163 43.83662158 -5.71435547 41.42382812 C-4.81756402 33.61494373 -3.91383832 25.80690838 -3 18 C-2.84380188 16.66001953 -2.84380188 16.66001953 -2.68444824 15.29296875 C-2.41639515 13.00726213 -2.14312687 10.72226598 -1.8671875 8.4375 C-1.7213623 7.21933594 -1.57553711 6.00117187 -1.42529297 4.74609375 C-1 2 -1 2 0 0 Z " fill="#000000" transform="translate(921,567)"/>
<path d="M0 0 C4.87783878 3.36028894 8.61338362 7.11597866 10.25 12.9375 C12.02120334 24.50136505 9.42817261 37.30172171 8.08300781 48.85791016 C7.80799155 51.22632642 7.5404184 53.59550957 7.2734375 55.96484375 C7.09939289 57.48182075 6.92492999 58.99874984 6.75 60.515625 C6.67080322 61.2186676 6.59160645 61.92171021 6.51000977 62.64605713 C6.16686605 65.56034825 5.74395965 68.14312105 4.8125 70.9375 C-2.1175 70.9375 -9.0475 70.9375 -16.1875 70.9375 C-16.1875 64.6002474 -16.0977035 58.76105587 -15.3125 52.55078125 C-15.22371582 51.80467087 -15.13493164 51.05856049 -15.04345703 50.2898407 C-14.76366267 47.94252148 -14.47632564 45.5962237 -14.1875 43.25 C-13.89931241 40.89300268 -13.61295335 38.53584084 -13.33154297 36.17802429 C-13.15757076 34.72164842 -12.97977067 33.26572248 -12.79736328 31.81037903 C-12.27996154 27.495065 -12.10832623 23.2818073 -12.1875 18.9375 C-14.9730146 17.20381392 -14.9730146 17.20381392 -18.15234375 17.30078125 C-24.15649519 20.18990759 -26.56816128 23.91708193 -29.1875 29.9375 C-29.51693604 30.64302002 -29.84637207 31.34854004 -30.18579102 32.07543945 C-31.45025745 35.68824471 -31.842339 39.26279206 -32.22265625 43.046875 C-32.30623886 43.81429016 -32.38982147 44.58170532 -32.47593689 45.37237549 C-32.74073272 47.81007988 -32.99610232 50.24863829 -33.25 52.6875 C-33.50845187 55.14051305 -33.76898476 57.59324201 -34.03477478 60.04547119 C-34.19958298 61.56854848 -34.35999029 63.09210947 -34.51564026 64.6161499 C-35.07538168 69.82538168 -35.07538168 69.82538168 -36.1875 70.9375 C-37.74922745 71.02435603 -39.31479344 71.04452219 -40.87890625 71.03515625 C-41.82314453 71.03193359 -42.76738281 71.02871094 -43.74023438 71.02539062 C-44.73345703 71.01701172 -45.72667969 71.00863281 -46.75 71 C-47.74708984 70.99548828 -48.74417969 70.99097656 -49.77148438 70.98632812 C-52.24354849 70.97450007 -54.71549518 70.95801849 -57.1875 70.9375 C-56.58269889 58.32270452 -55.10369958 45.82572801 -53.60351562 33.29101562 C-53.1842919 29.78567544 -52.77140869 26.2796294 -52.359375 22.7734375 C-52.09411787 20.53381057 -51.82850584 18.29422563 -51.5625 16.0546875 C-51.3780835 14.49063675 -51.3780835 14.49063675 -51.18994141 12.89498901 C-51.07312012 11.92272369 -50.95629883 10.95045837 -50.8359375 9.94873047 C-50.73458496 9.09906708 -50.63323242 8.24940369 -50.52880859 7.37399292 C-50.17804989 4.87003869 -49.70729795 2.41140821 -49.1875 -0.0625 C-46.93809705 -0.14369503 -44.68785129 -0.20177819 -42.4375 -0.25 C-41.18453125 -0.28480469 -39.9315625 -0.31960938 -38.640625 -0.35546875 C-35.00450348 -0.04697428 -33.68384857 0.34513802 -31.1875 2.9375 C-29.9375 6.125 -29.9375 6.125 -29.1875 8.9375 C-28.23875 8.03 -27.29 7.1225 -26.3125 6.1875 C-18.75905429 -0.23902034 -9.5827878 -3.1942626 0 0 Z " fill="#000000" transform="translate(777.1875,567.0625)"/>
<path d="M0 0 C4.67417008 3.87288378 7.96498874 7.8110811 9.1875 13.8125 C9.92140394 24.2548042 8.35152184 34.68835145 7.10620117 45.03442383 C6.74634209 48.03045419 6.39881408 51.02774038 6.05273438 54.02539062 C5.82884126 55.92716779 5.60425779 57.82886385 5.37890625 59.73046875 C5.27469864 60.62823532 5.17049103 61.52600189 5.06312561 62.45097351 C4.30315029 68.69684971 4.30315029 68.69684971 3.1875 69.8125 C1.62577255 69.89935603 0.06020656 69.91952219 -1.50390625 69.91015625 C-2.44814453 69.90693359 -3.39238281 69.90371094 -4.36523438 69.90039062 C-5.35845703 69.89201172 -6.35167969 69.88363281 -7.375 69.875 C-8.37208984 69.87048828 -9.36917969 69.86597656 -10.39648438 69.86132812 C-12.86854849 69.84950007 -15.34049518 69.83301849 -17.8125 69.8125 C-17.33206816 58.84540066 -16.2142567 48.01627814 -14.82885742 37.12744141 C-14.04016836 30.71562831 -13.29210367 24.27844578 -13.8125 17.8125 C-14.89885269 16.52527975 -14.89885269 16.52527975 -17.5 16.4375 C-21.83737784 16.92852391 -24.08406808 18.56191534 -26.8125 21.8125 C-31.19098334 28.30182242 -32.70350335 34.82937051 -33.5546875 42.51367188 C-33.87983072 45.41286562 -34.23748036 48.30759389 -34.59375 51.203125 C-35.35265347 57.40406107 -36.08705935 63.60756435 -36.8125 69.8125 C-44.0725 69.8125 -51.3325 69.8125 -58.8125 69.8125 C-57.49177573 55.29091333 -55.93301355 40.82032933 -54.15307617 26.34814453 C-53.74196927 22.99703808 -53.3386207 19.64504991 -52.93554688 16.29296875 C-52.67494048 14.15879778 -52.41389054 12.02468092 -52.15234375 9.890625 C-52.03253647 8.88984924 -51.91272919 7.88907349 -51.78929138 6.85797119 C-51.67569778 5.9448114 -51.56210419 5.03165161 -51.44506836 4.09082031 C-51.34673203 3.28590149 -51.24839569 2.48098267 -51.14707947 1.65167236 C-50.8125 -0.1875 -50.8125 -0.1875 -49.8125 -1.1875 C-47.90009516 -1.34002309 -45.98077201 -1.40942773 -44.0625 -1.4375 C-43.01578125 -1.46328125 -41.9690625 -1.4890625 -40.890625 -1.515625 C-37.38962125 -1.14242155 -35.57450843 -0.34885776 -32.8125 1.8125 C-31.5 5.5 -31.5 5.5 -30.8125 8.8125 C-30.11125 8.07 -29.41 7.3275 -28.6875 6.5625 C-20.43371336 -1.33242635 -10.84851883 -4.58048573 0 0 Z " fill="#000000" transform="translate(574.8125,568.1875)"/>
<path d="M0 0 C1.14136414 -0.00426498 2.28272827 -0.00852997 3.4586792 -0.01292419 C4.72207123 -0.01247101 5.98546326 -0.01201782 7.28713989 -0.0115509 C8.62230524 -0.01454091 9.95746972 -0.01794306 11.29263306 -0.02172852 C14.92902753 -0.0305898 18.5653985 -0.03290754 22.20180273 -0.0335443 C25.23367314 -0.03449182 28.26553802 -0.03816837 31.29740632 -0.0417164 C38.44926044 -0.04986935 45.60110197 -0.0522999 52.75296021 -0.05158997 C60.13800394 -0.05098922 67.52297463 -0.06153839 74.90799987 -0.07733363 C81.24092672 -0.0903975 87.57382965 -0.09577434 93.90676987 -0.09513456 C97.69239816 -0.09487919 101.4779616 -0.09775142 105.26357651 -0.10831261 C108.82416555 -0.11797404 112.38462749 -0.11808631 115.94522095 -0.11079597 C117.87813937 -0.10924692 119.81105772 -0.11761088 121.74395752 -0.12623596 C123.4644632 -0.11994423 123.4644632 -0.11994423 125.21972656 -0.11352539 C126.71799642 -0.11434254 126.71799642 -0.11434254 128.24653435 -0.1151762 C130.73684692 0.13371277 130.73684692 0.13371277 133.73684692 2.13371277 C134.11157703 5.09164429 134.11157703 5.09164429 134.11106873 8.96647644 C134.11504313 9.67731227 134.11901754 10.3881481 134.12311238 11.12052441 C134.13277567 13.51444383 134.12089345 15.9077782 134.10916138 18.30168152 C134.11158802 20.01299765 134.1153061 21.72431238 134.120224 23.43562317 C134.12965411 28.09259054 134.12018985 32.74934853 134.10689187 37.40629959 C134.09560298 42.27141108 134.09968289 47.13651187 134.10163879 52.00163269 C134.10252258 60.17297297 134.09142366 68.34423042 134.07302856 76.51554871 C134.05185964 85.97340472 134.04835055 95.43113934 134.05459052 104.88901424 C134.06027807 113.97341457 134.05464573 123.05777199 134.04341698 132.14216614 C134.0387629 136.01454967 134.03790063 139.88690703 134.04000282 143.7592926 C134.04188148 148.31632357 134.03381453 152.87323035 134.01794243 157.430233 C134.01368675 159.10644899 134.01285759 160.78267755 134.01563263 162.45889664 C134.01883671 164.73971873 134.00981796 167.02016561 133.99754333 169.3009491 C133.99446403 171.21899101 133.99446403 171.21899101 133.99132252 173.17578125 C133.73684692 176.13371277 133.73684692 176.13371277 131.73684692 178.13371277 C129.37237549 178.38260174 129.37237549 178.38260174 126.34671021 178.38095093 C125.20252625 178.38514542 124.05834229 178.3893399 122.87948608 178.3936615 C121.61811829 178.38804199 120.35675049 178.38242249 119.05715942 178.37663269 C117.72022407 178.3777052 116.38328917 178.37964342 115.0463562 178.38238525 C111.41004697 178.38724171 107.77386005 178.37956799 104.13756561 178.36943221 C100.33749017 178.36066442 96.5374187 178.36240891 92.73733521 178.36279297 C86.3549901 178.36185573 79.97269248 178.3531638 73.59036255 178.33952332 C66.20472836 178.32379716 58.8191462 178.31852518 51.43349648 178.31925887 C44.33748272 178.31986866 37.24148595 178.31476769 30.14547729 178.30646706 C27.12159086 178.30293077 24.09771043 178.30110331 21.07382202 178.30057335 C17.51488584 178.29957076 13.95599355 178.29348104 10.39707184 178.28340721 C8.46278839 178.27907992 6.52849593 178.27965478 4.59420776 178.28034973 C2.87793182 178.27395226 2.87793182 178.27395226 1.12698364 178.26742554 C-0.37072067 178.26491177 -0.37072067 178.26491177 -1.89868164 178.26234722 C-4.26315308 178.13371277 -4.26315308 178.13371277 -6.26315308 177.13371277 C-6.26315308 156.34371277 -6.26315308 135.55371277 -6.26315308 114.13371277 C-4.94315308 114.13371277 -3.62315308 114.13371277 -2.26315308 114.13371277 C11.40960979 127.80647564 -1.26315308 152.79750609 -1.26315308 172.13371277 C41.63684692 172.13371277 84.53684692 172.13371277 128.73684692 172.13371277 C128.73684692 117.02371277 128.73684692 61.91371277 128.73684692 5.13371277 C85.83684692 5.13371277 42.93684692 5.13371277 -1.26315308 5.13371277 C-1.26315308 37.80371277 -1.26315308 70.47371277 -1.26315308 104.13371277 C-3.24315308 105.12371277 -3.24315308 105.12371277 -5.26315308 106.13371277 C-6.79741114 104.59945471 -6.38908231 103.21057657 -6.39013672 101.07194519 C-6.39295654 100.19694366 -6.39577637 99.32194214 -6.39868164 98.42042542 C-6.39665741 97.45311493 -6.39463318 96.48580444 -6.39254761 95.48918152 C-6.39429993 94.47627045 -6.39605225 93.46335937 -6.39785767 92.41975403 C-6.40227829 89.05355645 -6.39933745 85.68741093 -6.39596558 82.32121277 C-6.39663855 79.99333181 -6.39760853 77.66545091 -6.39886475 75.33757019 C-6.40034201 70.45157708 -6.39818626 65.56560221 -6.39352417 60.67961121 C-6.38782687 54.40098621 -6.39110573 48.12240395 -6.39709663 41.84378052 C-6.40070149 37.03471044 -6.39956401 32.22565058 -6.39696884 27.4165802 C-6.39629936 25.1008046 -6.39712872 22.78502808 -6.39944839 20.46925354 C-6.40197368 17.23889185 -6.39813607 14.00860044 -6.39254761 10.77824402 C-6.39457184 9.81093353 -6.39659607 8.84362305 -6.39868164 7.84700012 C-6.39586182 6.9719986 -6.39304199 6.09699707 -6.39013672 5.19548035 C-6.38975969 4.4307692 -6.38938267 3.66605804 -6.38899422 2.87817383 C-6.11281235 -0.95037145 -3.18134515 0.00534163 0 0 Z " fill="#000000" transform="translate(181.26315307617188,518.8662872314453)"/>
<path d="M0 0 C6.70514154 6.89671701 9.23510975 14.3278778 9.5625 23.875 C9.35247073 35.52544706 5.7491528 46.27925691 -1.8125 55.25 C-5.25599176 58.34914258 -8.83740403 60.87889012 -12.8125 63.25 C-13.44671875 63.6315625 -14.0809375 64.013125 -14.734375 64.40625 C-21.91203793 67.83628361 -32.35965144 67.53447555 -39.859375 65.37109375 C-47.51443926 61.85672334 -51.96374873 56.82618359 -55.1875 49.125 C-58.54395006 38.94376815 -57.7578129 27.7615296 -53.3671875 18.0546875 C-47.33285292 6.17543692 -41.11841744 0.42230381 -28.8125 -4.75 C-18.6372984 -8.01001605 -8.79127467 -5.47012646 0 0 Z M-30 15.3125 C-34.15471125 22.04599755 -35.09170091 28.78059779 -35.1875 36.5625 C-35.20135742 37.24417236 -35.21521484 37.92584473 -35.22949219 38.62817383 C-35.18868188 42.99434025 -34.48152382 45.78026903 -31.8125 49.25 C-28.94641871 50.68304064 -26.99949217 50.55644155 -23.8125 50.25 C-18.45929669 47.78752648 -16.69665393 44.69871685 -14.57421875 39.46875 C-12.88987937 34.56257171 -12.59782491 29.98318337 -12.5625 24.8125 C-12.541875 24.06162109 -12.52125 23.31074219 -12.5 22.53710938 C-12.46783566 17.96575237 -12.79701541 14.93243883 -15.8125 11.25 C-21.72011386 9.14951507 -25.6118136 11.17506711 -30 15.3125 Z " fill="#000000" transform="translate(898.8125,571.75)"/>
<path d="M0 0 C3.59843789 3.59843789 5.95673366 7.13480707 6.03515625 12.328125 C5.59626713 19.47880634 3.626281 23.52113211 -1.64453125 28.49609375 C-5.12861352 31.34999124 -8.70865827 32.54810166 -13 33.75 C-13.68578125 33.95753906 -14.3715625 34.16507813 -15.078125 34.37890625 C-21.79454343 36.36563308 -28.01136677 37.12049368 -35 37 C-34.01 40.63 -33.02 44.26 -32 48 C-25.16677425 49.70830644 -19.45324607 50.21564993 -13.25 46.5 C-12.5178125 46.04882812 -11.785625 45.59765625 -11.03125 45.1328125 C-8.11887499 43.50860336 -6.24639152 43.26218375 -3 44 C0.28328232 46.6863219 2.2160524 49.20505691 4 53 C-4.95754106 61.54284008 -13.35722663 66.84864212 -26 67.25 C-35.58655029 66.92664414 -42.86934842 64.03677313 -49.75 57.3125 C-56.0039916 48.93851125 -56.91670273 40.20822049 -56 30 C-54.29571248 18.42211288 -49.20466728 8.39391306 -40 1 C-27.63923251 -7.67098615 -12.71331912 -8.42819666 0 0 Z M-27 12 C-30.03689777 15.38793703 -32.08262478 18.51176639 -33 23 C-26.17658958 22.55129501 -20.80793775 21.49895915 -15 17.6875 C-13.42267786 15.02576889 -14.29365155 12.8896073 -15 10 C-20.07078407 8.67193751 -22.65077599 9.0388262 -27 12 Z " fill="#000000" transform="translate(710,572)"/>
<path d="M0 0 C2.91691525 -0.05401695 5.83282724 -0.09368066 8.75 -0.125 C9.575 -0.14175781 10.4 -0.15851562 11.25 -0.17578125 C12.04921875 -0.18222656 12.8484375 -0.18867187 13.671875 -0.1953125 C14.4050293 -0.20578613 15.13818359 -0.21625977 15.89355469 -0.22705078 C18.3826065 0.04124062 19.92069848 0.60447856 22 2 C22.95395481 5.07118544 23.51484024 7.83234045 24 11 C24.0978479 11.63270813 24.1956958 12.26541626 24.29650879 12.91729736 C25.12028523 18.2924777 25.87605426 23.67647622 26.625 29.0625 C26.8564438 30.70772833 27.08821187 32.35291108 27.3203125 33.99804688 C27.88395092 37.99818181 28.44318818 41.99890935 29 46 C29.45850342 44.78417236 29.91700684 43.56834473 30.3894043 42.31567383 C32.09977586 37.79106424 33.82785991 33.27339275 35.5612793 28.75756836 C36.30796679 26.80497977 37.04988697 24.85056098 37.78686523 22.89428711 C38.84921517 20.0768749 39.928737 17.26656695 41.01171875 14.45703125 C41.33589279 13.58601273 41.66006683 12.7149942 41.99406433 11.81758118 C43.90651717 6.91339369 45.69487857 3.28592281 50 0 C52.31176758 -0.56762695 52.31176758 -0.56762695 54.64453125 -0.48828125 C55.48564453 -0.47216797 56.32675781 -0.45605469 57.19335938 -0.43945312 C58.05767578 -0.39755859 58.92199219 -0.35566406 59.8125 -0.3125 C60.69615234 -0.28994141 61.57980469 -0.26738281 62.49023438 -0.24414062 C64.6608891 -0.18547428 66.8306669 -0.09579979 69 0 C65.79628183 7.96390215 62.27895526 15.66978163 58.375 23.3125 C54.19412451 31.58044511 50.10230675 39.88215983 46.125 48.25 C42.49876726 55.87801432 38.81862647 63.46595319 35 71 C29.06 71 23.12 71 17 71 C14.43890818 63.70197865 12.48736522 56.33682529 10.64453125 48.828125 C10.33803146 47.58754333 10.03153168 46.34696167 9.71574402 45.06878662 C9.0726712 42.46052901 8.43119559 39.85193808 7.79223633 37.24267578 C6.97495076 33.90679756 6.14896665 30.57314091 5.32068348 27.23997879 C4.52746702 24.04150486 3.74272811 20.84095297 2.95703125 17.640625 C2.6602095 16.4478595 2.36338776 15.25509399 2.05757141 14.02618408 C1.78696396 12.9144281 1.51635651 11.80267212 1.23754883 10.65722656 C0.99788895 9.68287659 0.75822906 8.70852661 0.51130676 7.70465088 C0.01218877 5.06447474 -0.09654754 2.67925611 0 0 Z " fill="#000000" transform="translate(590,567)"/>
<path d="M0 0 C-0.66 6.6 -1.32 13.2 -2 20 C2.95 20 7.9 20 13 20 C12.125 31.625 12.125 31.625 11 35 C6.05 35.33 1.1 35.66 -4 36 C-4.57182835 40.92935804 -5.14143599 45.8589657 -5.70898438 50.78881836 C-5.90238357 52.46597229 -6.09639014 54.14305629 -6.29101562 55.82006836 C-6.57060784 58.2301247 -6.84801712 60.6404238 -7.125 63.05078125 C-7.21249512 63.80087967 -7.29999023 64.55097809 -7.39013672 65.32380676 C-7.72302029 68.23559614 -8 71.06636615 -8 74 C-3.545 73.505 -3.545 73.505 1 73 C6.57142857 81.42857143 6.57142857 81.42857143 7 86 C-0.3846388 90.26036854 -8.84322286 93.2458062 -17.4375 91.3125 C-22.36337121 89.49770534 -25.55642978 88.1960433 -28.3125 83.625 C-32.76900658 73.37769618 -29.49833446 60.43352456 -28 49.6875 C-27.80650887 48.2533606 -27.61379626 46.81911595 -27.421875 45.38476562 C-26.95684919 41.92192216 -26.48143103 38.4606056 -26 35 C-27.7015625 35.0309375 -27.7015625 35.0309375 -29.4375 35.0625 C-33 35 -33 35 -34 34 C-34.09858603 32.5444063 -34.12972143 31.08392081 -34.125 29.625 C-34.12886719 28.43777344 -34.12886719 28.43777344 -34.1328125 27.2265625 C-34 25 -34 25 -33 22 C-27.555 21.01 -27.555 21.01 -22 20 C-21.62875 18.081875 -21.62875 18.081875 -21.25 16.125 C-20.08597006 10.88686526 -18.43483377 5.79357898 -16 1 C-11.53794887 -1.23102556 -4.78092876 -0.04346299 0 0 Z " fill="#000000" transform="translate(829,547)"/>
<path d="M0 0 C7.59 0 15.18 0 23 0 C22.34236446 11.5135364 21.15961007 22.88865051 19.75 34.33203125 C19.52937372 36.14423142 19.30900085 37.95646246 19.08886719 39.76872253 C18.63088322 43.53144445 18.1700322 47.29380042 17.70703125 51.0559082 C17.11320632 55.88278914 16.52649627 60.71050444 15.9418335 65.53850269 C15.48988788 69.2644723 15.03438043 72.98999961 14.57775879 76.71539879 C14.35978757 78.49711687 14.14290386 80.27896834 13.92712402 82.06095314 C13.62690131 84.53564237 13.32192414 87.00969914 13.015625 89.48364258 C12.92728394 90.21964691 12.83894287 90.95565125 12.7479248 91.71395874 C12.11429703 96.77140595 12.11429703 96.77140595 11 99 C3.74 99 -3.52 99 -11 99 C-12.72897261 95.54205479 -11.4928992 91.60566424 -11.01196289 87.86865234 C-10.89506607 86.92226395 -10.77816925 85.97587555 -10.6577301 85.00080872 C-10.26852309 81.86176331 -9.87061432 78.72388449 -9.47265625 75.5859375 C-9.20164952 73.41409861 -8.93118395 71.24219214 -8.66123962 69.07022095 C-7.94821693 63.34517773 -7.22782071 57.6210854 -6.50592041 51.89715576 C-5.77100294 46.05959451 -5.04301385 40.2211699 -4.31445312 34.3828125 C-2.88310758 22.92101332 -1.4433375 11.46029526 0 0 Z " fill="#000000" transform="translate(491,539)"/>
<path d="M0 0 C1.65 0 3.3 0 5 0 C5 73.92 5 147.84 5 224 C3.35 224 1.7 224 0 224 C0 150.08 0 76.16 0 0 Z " fill="#000000" transform="translate(399,488)"/>
<path d="M0 0 C3.8026029 2.0050088 5.61790841 3.42686262 8 7 C8.6772783 12.08746258 8.82467221 16.55682364 6.25 21.0625 C2.22665475 24.5270473 -0.50127937 25.46923801 -5.97265625 25.31640625 C-10.4009051 24.62529227 -13.14269488 22.05734298 -15.875 18.6875 C-17.33217435 15.20647239 -17.40121989 12.74471902 -17 9 C-13.5898589 1.28231224 -8.11642487 -1.44323752 0 0 Z M-9.9375 7.0625 C-12.3369117 9.89640967 -12.3369117 9.89640967 -12.0625 13.625 C-11.25872405 16.96376834 -11.25872405 16.96376834 -9.3125 18.9375 C-6.26397123 20.33817538 -4.32073048 20.4842732 -1 20 C1.34597719 18.22466591 2.6271773 16.74564539 3.9375 14.125 C4.03353874 10.85968298 2.65052303 8.75087171 1 6 C-3.20204467 3.89897766 -6.16206276 4.41166108 -9.9375 7.0625 Z " fill="#000000" transform="translate(212,655)"/>
<path d="M0 0 C4.09108165 2.08273248 6.31077324 3.75782419 8 8 C8.67336584 12.81534876 8.72619338 16.75509707 6.25 21 C2.25874503 24.5477822 -0.47962968 25.46984275 -5.97265625 25.31640625 C-10.4009051 24.62529227 -13.14269488 22.05734298 -15.875 18.6875 C-17.35117243 15.16108808 -17.46618895 12.79611 -17 9 C-12.84662739 1.28659373 -8.65884265 -1.36560603 0 0 Z M-9.9375 7.0625 C-12.3369117 9.89640967 -12.3369117 9.89640967 -12.0625 13.625 C-11.25872405 16.96376834 -11.25872405 16.96376834 -9.3125 18.9375 C-6.26397123 20.33817538 -4.32073048 20.4842732 -1 20 C1.34597719 18.22466591 2.6271773 16.74564539 3.9375 14.125 C4.03353874 10.85968298 2.65052303 8.75087171 1 6 C-3.20204467 3.89897766 -6.16206276 4.41166108 -9.9375 7.0625 Z " fill="#000000" transform="translate(212,616)"/>
<path d="M0 0 C4.09108165 2.08273248 6.31077324 3.75782419 8 8 C8.67336584 12.81534876 8.72619338 16.75509707 6.25 21 C2.25874503 24.5477822 -0.47962968 25.46984275 -5.97265625 25.31640625 C-10.4009051 24.62529227 -13.14269488 22.05734298 -15.875 18.6875 C-17.35117243 15.16108808 -17.46618895 12.79611 -17 9 C-12.84662739 1.28659373 -8.65884265 -1.36560603 0 0 Z M-9.9375 7.0625 C-12.34717255 9.89624729 -12.34717255 9.89624729 -12 13.625 C-10.97127846 17.60771764 -10.97127846 17.60771764 -8 20 C-4.02084905 20.50643739 -1.90380134 20.66595888 1.375 18.25 C3.48227448 15.38961935 3.48227448 15.38961935 4 12 C2.40485216 7.71388753 2.40485216 7.71388753 -1 5 C-5.03191305 4.46241159 -6.5619036 4.6924004 -9.9375 7.0625 Z " fill="#000000" transform="translate(212,575)"/>
<path d="M0 0 C3.6149323 1.9014093 5.62529222 3.44767326 7.06640625 7.23828125 C7.73977209 12.05363001 7.79259963 15.99337832 5.31640625 20.23828125 C1.32515128 23.78606345 -1.41322343 24.708124 -6.90625 24.5546875 C-11.33449885 23.86357352 -14.07628863 21.29562423 -16.80859375 17.92578125 C-18.28476618 14.39936933 -18.3997827 12.03439125 -17.93359375 8.23828125 C-14.16281103 0.97603304 -8.30997052 -3.27362475 0 0 Z M-10.87109375 6.30078125 C-13.2807663 9.13452854 -13.2807663 9.13452854 -12.93359375 12.86328125 C-11.90487221 16.84599889 -11.90487221 16.84599889 -8.93359375 19.23828125 C-4.9544428 19.74471864 -2.83739509 19.90424013 0.44140625 17.48828125 C2.08649797 15.21046195 2.89740013 14.02688226 3.06640625 11.23828125 C1.98611188 7.45725095 1.42334362 6.4762395 -1.93359375 4.23828125 C-5.98839776 3.62124586 -7.47729352 3.91790024 -10.87109375 6.30078125 Z " fill="#000000" transform="translate(212.93359375,536.76171875)"/>
<path d="M0 0 C20.13 0 40.26 0 61 0 C61.495 1.98 61.495 1.98 62 4 C61 5 61 5 58.60191345 5.12025452 C57.53824051 5.11803391 56.47456757 5.11581329 55.37866211 5.11352539 C54.17749252 5.11344986 52.97632294 5.11337433 51.73875427 5.11329651 C50.4314888 5.10813522 49.12422333 5.10297394 47.77734375 5.09765625 C46.43355868 5.09579198 45.08977293 5.09436812 43.74598694 5.09336853 C40.20317723 5.08954402 36.6604083 5.07971432 33.11761475 5.06866455 C29.50484773 5.05844899 25.89207416 5.0538706 22.27929688 5.04882812 C15.1861812 5.03809198 8.09309326 5.02101636 1 5 C0.67 3.35 0.34 1.7 0 0 Z " fill="#000000" transform="translate(232,665)"/>
<path d="M0 0 C1.06367294 0.00222061 2.12734589 0.00444122 3.22325134 0.00672913 C5.02500572 0.00684242 5.02500572 0.00684242 6.86315918 0.00695801 C8.17042465 0.01211929 9.47769012 0.01728058 10.8245697 0.02259827 C12.16835477 0.02446253 13.51214052 0.02588639 14.85592651 0.02688599 C18.39873622 0.0307105 21.94150515 0.0405402 25.48429871 0.05158997 C29.09706572 0.06180552 32.7098393 0.06638392 36.32261658 0.07142639 C43.41573225 0.08216254 50.50882019 0.09923816 57.60191345 0.12025452 C58.09691345 2.59525452 58.09691345 2.59525452 58.60191345 5.12025452 C38.47191345 5.12025452 18.34191345 5.12025452 -2.39808655 5.12025452 C-2.72808655 3.80025452 -3.05808655 2.48025452 -3.39808655 1.12025452 C-2.39808655 0.12025452 -2.39808655 0.12025452 0 0 Z " fill="#000000" transform="translate(235.39808654785156,545.8797454833984)"/>
<path d="M0 0 C1.06367294 0.00222061 2.12734589 0.00444122 3.22325134 0.00672913 C5.02500572 0.00684242 5.02500572 0.00684242 6.86315918 0.00695801 C8.17042465 0.01211929 9.47769012 0.01728058 10.8245697 0.02259827 C12.16835477 0.02446253 13.51214052 0.02588639 14.85592651 0.02688599 C18.39873622 0.0307105 21.94150515 0.0405402 25.48429871 0.05158997 C29.09706572 0.06180552 32.7098393 0.06638392 36.32261658 0.07142639 C43.41573225 0.08216254 50.50882019 0.09923816 57.60191345 0.12025452 C58.16441345 2.05775452 58.16441345 2.05775452 58.60191345 4.12025452 C57.60191345 5.12025452 57.60191345 5.12025452 55.2038269 5.24050903 C54.14015396 5.23828842 53.07648102 5.23606781 51.98057556 5.23377991 C50.77940598 5.23370438 49.57823639 5.23362885 48.34066772 5.23355103 C47.03340225 5.22838974 45.72613678 5.22322845 44.3792572 5.21791077 C43.03547213 5.2160465 41.69168638 5.21462264 40.34790039 5.21362305 C36.80509069 5.20979853 33.26232175 5.19996883 29.7195282 5.18891907 C26.10676119 5.17870351 22.49398761 5.17412512 18.88121033 5.16908264 C11.78809465 5.1583465 4.69500671 5.14127088 -2.39808655 5.12025452 C-2.96058655 3.18275452 -2.96058655 3.18275452 -3.39808655 1.12025452 C-2.39808655 0.12025452 -2.39808655 0.12025452 0 0 Z " fill="#000000" transform="translate(235.39808654785156,625.8797454833984)"/>
<path d="M0 0 C1.06367294 0.00222061 2.12734589 0.00444122 3.22325134 0.00672913 C5.02500572 0.00684242 5.02500572 0.00684242 6.86315918 0.00695801 C8.17042465 0.01211929 9.47769012 0.01728058 10.8245697 0.02259827 C12.16835477 0.02446253 13.51214052 0.02588639 14.85592651 0.02688599 C18.39873622 0.0307105 21.94150515 0.0405402 25.48429871 0.05158997 C29.09706572 0.06180552 32.7098393 0.06638392 36.32261658 0.07142639 C43.41573225 0.08216254 50.50882019 0.09923816 57.60191345 0.12025452 C58.16441345 2.05775452 58.16441345 2.05775452 58.60191345 4.12025452 C57.60191345 5.12025452 57.60191345 5.12025452 55.2038269 5.24050903 C54.14015396 5.23828842 53.07648102 5.23606781 51.98057556 5.23377991 C50.77940598 5.23370438 49.57823639 5.23362885 48.34066772 5.23355103 C47.03340225 5.22838974 45.72613678 5.22322845 44.3792572 5.21791077 C43.03547213 5.2160465 41.69168638 5.21462264 40.34790039 5.21362305 C36.80509069 5.20979853 33.26232175 5.19996883 29.7195282 5.18891907 C26.10676119 5.17870351 22.49398761 5.17412512 18.88121033 5.16908264 C11.78809465 5.1583465 4.69500671 5.14127088 -2.39808655 5.12025452 C-2.96058655 3.18275452 -2.96058655 3.18275452 -3.39808655 1.12025452 C-2.39808655 0.12025452 -2.39808655 0.12025452 0 0 Z " fill="#000000" transform="translate(235.39808654785156,584.8797454833984)"/>
</svg>