<svg version="1.1" id="Layer_1" xmlns="http://www.w3.org/2000/svg" xmlns:xlink="http://www.w3.org/1999/xlink" x="0px" y="0px"
	 width="100%" viewBox="0 0 1200 1200" enable-background="new 0 0 1200 1200" xml:space="preserve">
<path fill="#1061E4" opacity="1.000000" stroke="none" 
	d="
M1093.000000,1201.000000 
	C728.666687,1201.000000 364.833344,1201.000000 1.000000,1201.000000 
	C1.000000,801.000000 1.000000,401.000000 1.000000,1.000000 
	C401.000000,1.000000 801.000000,1.000000 1201.000000,1.000000 
	C1201.000000,401.000000 1201.000000,801.000000 1201.000000,1201.000000 
	C1165.166626,1201.000000 1129.333374,1201.000000 1093.000000,1201.000000 
M641.121643,582.492554 
	C640.826111,589.869385 640.826294,589.901245 648.370605,589.864807 
	C653.362671,589.840637 658.358826,589.812256 663.344543,589.592346 
	C667.213867,589.421631 673.059143,590.314514 674.450256,588.284302 
	C676.378052,585.471130 674.967529,580.360596 674.943542,576.233887 
	C674.940918,575.780212 674.657043,575.328064 674.458618,574.742371 
	C672.540344,574.383484 670.625061,574.025146 668.549072,573.636780 
	C668.549072,567.332275 668.549072,561.247314 668.549072,553.839111 
	C676.772888,564.703125 684.388245,574.316040 691.454163,584.317322 
	C694.292297,588.334473 697.564270,590.018677 702.229553,589.885803 
	C712.191711,589.601990 712.639404,591.237610 712.652039,578.884399 
	C712.661377,569.758240 712.210938,560.632324 712.033630,551.504944 
	C711.947815,547.084595 712.018860,542.661072 712.018860,538.340027 
	C720.008545,536.960693 720.008667,536.960693 720.008667,529.317261 
	C720.008667,528.318420 719.913513,527.309143 720.023804,526.322754 
	C720.337646,523.515442 718.961609,522.323914 716.318970,522.308899 
	C707.667847,522.259888 699.013489,522.103943 690.368958,522.325745 
	C689.093384,522.358582 686.908752,524.108765 686.785889,525.242126 
	C686.346741,529.296204 686.613953,533.426819 686.613953,537.712891 
	C688.788513,537.935364 690.844299,538.145752 693.196655,538.386414 
	C693.196655,544.466003 693.196655,550.157837 693.196655,557.202393 
	C691.209534,555.225586 689.865845,554.156616 688.850403,552.835388 
	C681.968140,543.880371 675.225220,534.817078 668.253784,525.932678 
	C667.033142,524.377075 665.016479,522.609924 663.247803,522.471863 
	C657.125854,521.993652 650.944153,522.019714 644.802063,522.269592 
	C643.496765,522.322693 641.238098,524.073303 641.180664,525.136902 
	C640.977600,528.900879 640.977417,532.886475 642.107788,536.399658 
	C642.514465,537.663696 646.337769,537.828308 649.276428,538.693237 
	C649.276428,549.607361 649.328491,560.726746 649.181274,571.843506 
	C649.169006,572.770874 647.643372,574.565979 647.106689,574.463318 
	C640.672180,573.232910 640.871704,577.337524 641.121643,582.492554 
M429.271912,589.689941 
	C431.834167,589.210754 435.593750,591.506836 436.094360,586.402710 
	C436.997437,577.194580 436.037476,575.217163 429.240906,573.433777 
	C429.240906,567.404297 429.240906,561.374817 429.240906,554.394531 
	C430.355438,555.643677 430.881592,556.160645 431.324799,556.740845 
	C438.696686,566.392029 445.905579,576.174622 453.543396,585.610229 
	C455.182617,587.635315 458.320526,589.477417 460.844177,589.582886 
	C473.551544,590.114136 473.375000,591.152954 473.261627,577.573242 
	C473.152283,564.476379 473.237976,551.377869 473.237976,538.308105 
	C480.888062,536.856689 480.888000,536.856689 480.874969,528.741211 
	C480.873901,528.075012 480.801910,527.399719 480.885437,526.744202 
	C481.310822,523.405396 479.558868,522.269958 476.530090,522.261963 
	C471.038727,522.247437 465.547577,522.141113 460.056244,522.132751 
	C445.951538,522.111206 445.468933,522.691589 447.286438,537.168640 
	C447.304840,537.315308 447.466095,537.444031 447.689941,537.768494 
	C449.582947,537.959290 451.623688,538.164978 453.830322,538.387451 
	C453.830322,544.474670 453.830322,550.169067 453.830322,555.863464 
	C453.110565,556.495911 452.390808,557.128296 451.671021,557.760742 
	C451.044342,556.220825 450.712006,554.457642 449.741547,553.178589 
	C444.719055,546.558838 438.484741,540.617554 434.660736,533.388245 
	C429.463287,523.562561 422.076691,521.266968 411.866852,521.825317 
	C401.107513,522.413818 400.649841,522.371094 401.865936,533.253235 
	C402.185120,536.109375 402.807648,537.862305 406.279083,537.896057 
	C407.520691,537.908203 409.772552,539.969055 409.810760,541.151489 
	C410.138458,551.289490 410.148560,561.442017 409.980865,571.585632 
	C409.963745,572.618958 407.974731,574.618896 407.208435,574.479431 
	C402.014313,573.534241 401.680450,576.479614 401.966827,580.284668 
	C402.065887,581.600708 401.997131,582.959595 401.785278,584.263184 
	C401.124329,588.330505 402.589996,590.105530 406.886444,589.929504 
	C414.023285,589.637085 421.174530,589.696228 429.271912,589.689941 
M885.706055,548.961975 
	C885.706055,557.185486 885.706055,565.409058 885.706055,573.958069 
	C882.467896,573.958069 880.357666,573.958069 877.848999,573.958069 
	C877.848999,579.075928 877.848999,583.853821 877.848999,589.115295 
	C879.340759,589.202698 880.951416,589.377625 882.562073,589.377441 
	C889.213745,589.376770 895.869629,589.158997 902.516174,589.327759 
	C912.053711,589.570190 912.520264,589.244812 912.662964,579.786194 
	C912.665466,579.619629 912.659546,579.452820 912.666992,579.286560 
	C912.794678,576.439026 911.623352,574.896301 908.583008,574.978638 
	C907.499634,575.007996 906.406067,574.660889 905.324219,574.486755 
	C905.324219,572.065857 905.324219,569.979187 905.324219,567.058838 
	C908.099426,567.748108 911.120667,567.590942 912.581787,569.024231 
	C917.879456,574.220825 922.521667,580.003357 919.426392,589.003723 
	C929.360291,589.003723 938.277710,589.003723 947.661316,589.003723 
	C947.661316,584.783997 947.980103,581.086670 947.492981,577.498657 
	C947.316223,576.196655 945.033691,574.024536 944.021240,574.186218 
	C938.823303,575.016235 936.609314,571.730286 934.098511,568.271423 
	C932.179138,565.627441 932.162231,563.913574 935.299072,562.458557 
	C940.032654,560.262817 942.517029,556.253967 943.863586,551.395142 
	C948.098511,536.113953 937.632629,522.543335 920.869934,522.061218 
	C907.726868,521.683167 894.568054,521.750305 881.418335,521.865723 
	C880.126099,521.877075 877.857361,523.504456 877.741211,524.567444 
	C877.302429,528.584106 877.564880,532.677368 877.564880,537.032715 
	C880.512939,537.032715 882.623108,537.032715 885.759644,537.032715 
	C885.759644,540.906006 885.759644,544.494202 885.706055,548.961975 
M862.253479,581.758789 
	C873.943909,571.727295 875.085571,548.885376 868.244263,537.515625 
	C861.136597,525.703308 850.836792,520.921936 838.042969,520.570068 
	C820.528259,520.088501 802.515320,526.768494 798.686646,548.013489 
	C796.711426,558.973755 798.035889,569.479919 805.504028,578.555664 
	C817.684204,593.357727 846.855835,595.543213 862.253479,581.758789 
M626.181702,522.190735 
	C618.206604,522.229675 610.231323,522.243042 602.256531,522.315247 
	C594.941650,522.381409 587.612732,522.842163 580.316772,522.520813 
	C572.846252,522.191833 572.319519,522.201599 572.410583,529.655273 
	C572.456482,533.417969 571.869019,538.118469 578.270874,537.585266 
	C578.856689,537.536438 580.174866,539.417175 580.188171,540.414795 
	C580.325745,550.737183 580.275696,561.062256 580.251770,571.386536 
	C580.245850,573.932922 579.052856,575.009216 576.435791,574.416504 
	C573.692932,573.795227 572.913330,575.480347 572.761475,577.781921 
	C572.630005,579.773926 572.597290,581.780579 572.322449,583.753113 
	C571.731506,587.993774 573.409363,589.906677 577.765320,589.898010 
	C594.755493,589.864380 611.746277,589.909790 628.735962,590.043030 
	C632.179504,590.070007 633.488403,588.766174 633.345520,585.307068 
	C633.140076,580.332336 633.378906,575.340393 633.250366,570.360474 
	C633.219299,569.155334 632.533752,566.950378 632.079102,566.931885 
	C627.974731,566.765137 623.785217,566.605286 619.785828,567.341125 
	C618.724792,567.536377 618.234131,570.831482 617.110413,573.626282 
	C612.459412,573.626282 607.171082,573.736389 601.896423,573.518555 
	C601.010620,573.481934 599.702820,572.171265 599.408875,571.201111 
	C597.748840,565.724182 598.869019,564.230957 604.724670,563.671448 
	C606.039490,563.545837 607.377197,563.426575 608.687439,563.526550 
	C615.520447,564.048035 615.716980,563.874817 615.529419,556.988953 
	C615.502441,556.000732 615.498962,554.984802 615.689209,554.022156 
	C616.558228,549.625671 614.161316,548.357849 610.388855,548.406616 
	C607.729187,548.441040 605.064087,548.698181 602.412903,548.585449 
	C598.760071,548.430054 599.012268,545.614868 599.018982,543.087402 
	C599.024597,540.972229 598.485107,538.420532 601.832275,538.372192 
	C606.764221,538.300903 611.697998,538.353821 617.031860,538.353821 
	C615.462830,545.428406 619.991333,545.553711 624.848022,545.345337 
	C625.668945,545.310059 626.498535,545.537659 627.327087,545.609863 
	C630.163086,545.857117 631.845703,544.697449 631.847656,541.709045 
	C631.851196,536.381531 631.818115,531.053650 631.754333,525.726562 
	C631.717163,522.626404 629.880188,521.744934 626.181702,522.190735 
M523.904236,559.480164 
	C521.135803,552.275146 518.367371,545.070190 515.242004,536.936218 
	C521.456055,538.767029 521.741455,535.201416 521.861084,531.515381 
	C521.904236,530.185608 521.792419,528.849426 521.864380,527.522278 
	C522.068726,523.751587 520.354492,522.080627 516.552917,522.104065 
	C507.901642,522.157471 499.245300,521.907349 490.602173,522.161133 
	C489.368958,522.197327 487.131897,524.406372 487.188904,525.515747 
	C487.397522,529.578369 488.375397,533.602051 489.148682,537.623962 
	C489.154022,537.651794 490.465454,537.186768 490.971863,537.404968 
	C492.550049,538.084961 494.853027,538.606018 495.428162,539.854980 
	C501.122742,552.221497 506.791199,564.613770 511.942383,577.213257 
	C518.278137,592.710022 516.041382,589.446350 530.719055,589.951660 
	C534.737549,590.090027 536.594727,588.502991 538.095886,584.925415 
	C543.942322,570.992310 550.105042,557.192078 556.139099,543.337646 
	C557.571228,540.049377 559.013855,537.049622 563.513306,537.065430 
	C564.561829,537.069092 566.359985,534.905151 566.516846,533.584534 
	C566.844421,530.826782 566.690857,527.861877 565.963562,525.192261 
	C565.601074,523.861572 563.564575,522.101318 562.240051,522.061951 
	C553.622559,521.806030 544.991455,521.906067 536.367737,522.055847 
	C534.878662,522.081665 532.198364,522.746338 532.117371,523.378479 
	C531.596375,527.443237 531.250000,531.632141 531.768921,535.661499 
	C531.909729,536.754944 535.229370,537.439148 537.519104,538.512207 
	C534.176697,547.230347 530.728271,556.225098 527.279846,565.219849 
	C526.794861,565.189514 526.309814,565.159180 525.824768,565.128906 
	C525.234436,563.502502 524.644043,561.876160 523.904236,559.480164 
M308.300110,684.070190 
	C265.743805,684.070190 223.187515,684.070190 180.286728,684.070190 
	C180.286728,670.237915 180.294525,657.087341 180.282730,643.936829 
	C180.278259,638.938599 180.324890,633.936523 180.121964,628.945374 
	C180.079330,627.896667 179.043884,626.888367 178.465897,625.861450 
	C177.673706,626.911743 176.619293,627.862061 176.168884,629.042786 
	C175.779755,630.062927 176.071014,631.345032 176.072037,632.511292 
	C176.086212,648.673279 176.102615,664.835327 176.117569,680.997314 
	C176.124557,688.557678 176.123718,688.583923 183.475555,688.568604 
	C224.962173,688.482117 266.448730,688.383118 307.935333,688.285339 
	C314.437347,688.270020 314.461334,688.262695 314.452209,681.561279 
	C314.378906,627.577637 314.235992,573.593872 314.316895,519.610413 
	C314.324219,514.713501 312.777435,513.430237 308.045135,513.456604 
	C265.892303,513.691650 223.738113,513.763916 181.584625,513.696838 
	C177.234848,513.689941 175.861496,514.877014 175.899506,519.326477 
	C176.114380,544.484375 176.027725,569.644714 176.047668,594.804260 
	C176.052689,601.135742 175.965729,607.470886 176.184662,613.795227 
	C176.223083,614.905212 177.571686,615.969788 178.315216,617.055359 
	C178.939545,616.034241 179.833817,615.082031 180.116714,613.973755 
	C180.436737,612.720093 180.217834,611.326355 180.216339,609.993530 
	C180.184219,581.335144 180.149597,552.676697 180.115997,524.018311 
	C180.113739,522.091675 180.115692,520.165039 180.115692,518.087830 
	C223.774124,518.087830 266.680328,518.087830 309.846619,518.087830 
	C309.934479,519.364319 310.058075,520.330261 310.059326,521.296265 
	C310.126495,574.114258 310.190918,626.932190 310.199860,679.750183 
	C310.200104,681.136597 309.584045,682.523071 308.300110,684.070190 
M972.099426,571.557129 
	C970.524719,572.236267 968.868896,572.776550 967.399475,573.635803 
	C966.075500,574.409973 964.030273,575.433167 963.912170,576.521118 
	C963.488159,580.428772 963.745850,584.410339 963.745850,588.936218 
	C972.091492,588.936218 979.868835,588.720093 987.629517,588.987183 
	C999.122314,589.382568 999.012207,589.528015 999.069092,578.340759 
	C999.086243,574.972534 998.178894,573.158936 994.582458,573.754456 
	C991.454590,574.272278 990.665955,572.589294 991.048157,570.021667 
	C991.357605,567.942566 991.542236,565.624207 992.597168,563.914795 
	C997.304138,556.287415 1002.359070,548.875671 1007.167297,541.309204 
	C1008.840454,538.676208 1010.362732,536.499146 1014.126099,536.795166 
	C1015.207031,536.880249 1017.683777,534.209595 1017.456421,533.345764 
	C1016.469421,529.595581 1020.042358,525.051147 1015.553284,522.006592 
	C1015.299194,521.834229 1014.911072,521.805969 1014.584229,521.802246 
	C1005.942871,521.703064 997.300903,521.548035 988.660278,521.598694 
	C987.333557,521.606506 985.529480,522.197449 984.780090,523.164673 
	C982.610901,525.964783 984.275879,536.097046 987.195435,538.484314 
	C985.425110,541.336426 983.637878,544.215637 981.296387,547.987854 
	C978.875488,544.075378 977.031982,541.095947 975.172791,538.091248 
	C978.998718,535.922668 980.200989,523.975769 977.346680,521.914917 
	C976.621399,521.391235 975.453064,521.298889 974.492371,521.312134 
	C965.859314,521.431091 957.227661,521.660828 948.594482,521.761108 
	C945.598145,521.795898 944.427856,523.247070 944.570862,526.090393 
	C944.645996,527.584534 944.888855,529.127319 944.626892,530.570312 
	C943.882202,534.671448 945.025452,537.020203 949.606628,537.013000 
	C950.642212,537.011353 952.108337,537.477417 952.649719,538.242371 
	C958.885803,547.054077 965.074707,555.903687 971.024231,564.909485 
	C972.023804,566.422546 971.827148,568.725952 972.099426,571.557129 
M727.102417,538.676392 
	C727.102417,541.643677 727.102417,544.610901 727.102417,548.030396 
	C729.661560,548.146729 731.770325,548.343201 733.876831,548.321106 
	C743.237610,548.223145 743.233337,548.200195 743.889404,540.072754 
	C743.912292,539.788940 744.183655,539.525146 744.542908,538.894531 
	C746.421509,538.915039 749.454285,537.014648 749.547119,541.009277 
	C749.801025,551.931274 749.634583,562.862976 749.634583,573.905090 
	C747.475525,574.074463 746.151672,573.823730 745.253174,574.329163 
	C743.784790,575.155334 741.437073,576.532166 741.489502,577.574646 
	C741.694153,581.644592 742.681519,585.677124 743.460449,589.707703 
	C743.487183,589.846130 744.393188,589.855713 744.889526,589.856079 
	C755.157227,589.864136 765.424866,589.862183 776.178833,589.862183 
	C776.178833,584.174255 776.178833,579.470337 776.178833,574.551453 
	C773.718323,574.348572 771.485596,574.164429 768.960083,573.956177 
	C768.960083,564.364624 768.819885,555.075500 769.051819,545.795654 
	C769.115356,543.252686 766.784851,539.008850 771.568420,538.567627 
	C776.028259,538.156128 774.126465,542.586670 775.215149,544.807007 
	C775.885864,546.175049 777.718750,548.357605 778.332520,548.146545 
	C782.588318,546.683044 787.597351,550.628479 791.317871,546.295593 
	C791.509705,546.072205 791.547363,545.661011 791.547852,545.337036 
	C791.560120,537.741577 791.557373,530.146118 791.557373,522.308350 
	C785.323975,522.308350 780.036926,522.328918 774.750183,522.304443 
	C760.776367,522.239868 746.799133,522.308044 732.830872,521.990723 
	C728.371765,521.889404 726.303040,523.470886 726.429565,527.817322 
	C726.526123,531.134277 726.822327,534.445496 727.102417,538.676392 
M358.369049,587.846741 
	C360.217865,588.551758 362.055603,589.824158 363.917511,589.860596 
	C370.903992,589.997375 377.898132,589.707825 384.889893,589.620789 
	C394.103271,589.506165 394.103363,589.523560 393.881958,580.136963 
	C393.874084,579.804016 393.855316,579.469727 393.874146,579.137939 
	C394.047028,576.090027 392.909088,574.326294 389.560303,574.683960 
	C386.431549,575.018127 385.603638,573.445557 385.654114,570.527649 
	C385.795258,562.371094 385.700653,554.210571 385.699310,546.051575 
	C385.698914,543.454712 385.699280,540.857788 385.699280,538.336609 
	C393.312408,537.349976 393.312439,537.349976 393.316132,530.132385 
	C393.316376,529.632751 393.246704,529.121704 393.326508,528.635193 
	C394.186768,523.389709 391.448517,521.925964 386.773315,522.090759 
	C381.130371,522.289856 375.467346,522.485779 369.832703,522.236877 
	C357.963593,521.712585 357.969299,521.593201 358.112061,533.316345 
	C358.118164,533.815796 357.894440,534.470703 358.132080,534.786804 
	C358.929108,535.846924 359.721100,537.279175 360.824036,537.650146 
	C362.289001,538.142883 364.044586,537.771729 365.904480,537.771729 
	C365.904480,550.036560 365.904480,561.937744 365.904480,573.778870 
	C358.281250,574.909851 358.284851,574.909851 358.272614,582.471191 
	C358.270203,583.967712 358.228333,585.464172 358.369049,587.846741 
M365.108154,655.508606 
	C365.108154,665.455017 365.108154,675.401489 365.108154,685.478516 
	C369.578735,685.478516 373.435455,685.478516 377.858673,685.478516 
	C377.858673,679.651184 377.858673,674.228088 377.858673,668.679382 
	C382.829803,668.679382 387.223602,668.679382 392.309723,668.679382 
	C392.309723,674.567749 392.309723,680.119507 392.309723,685.512329 
	C396.758118,685.512329 400.504852,685.512329 404.307922,685.512329 
	C404.307922,670.567993 404.307922,656.006775 404.307922,641.424194 
	C400.142181,641.424194 396.383179,641.424194 391.945740,641.424194 
	C391.945740,646.933044 391.945740,652.139771 391.945740,657.415771 
	C386.973572,657.415771 382.693604,657.415771 377.687927,657.415771 
	C377.687927,651.950867 377.687927,646.727966 377.687927,641.392151 
	C373.202972,641.392151 369.447784,641.392151 365.108154,641.392151 
	C365.108154,645.943848 365.108154,650.228943 365.108154,655.508606 
M755.558655,674.658325 
	C749.482727,673.346497 746.614136,670.422363 745.962219,664.875854 
	C745.309570,659.322815 747.520020,654.425598 751.546265,652.504456 
	C755.900696,650.426758 760.588318,651.758667 765.473145,656.623474 
	C768.324890,654.553162 771.214233,652.455505 774.053101,650.394531 
	C769.153503,641.952271 759.630737,638.582336 749.439148,641.310120 
	C740.133362,643.800720 733.018555,653.244934 733.173096,662.901917 
	C733.339417,673.302979 740.811523,682.717285 750.792419,685.101013 
	C760.225220,687.353943 770.350769,683.279358 774.597839,675.260986 
	C773.103149,674.311340 771.603638,673.307190 770.053772,672.387939 
	C768.377258,671.393372 766.653687,670.478088 764.950623,669.528259 
	C765.021484,669.975647 765.092407,670.423035 765.163269,670.870483 
	C762.248352,672.129517 759.333496,673.388489 755.558655,674.658325 
M858.974487,672.585693 
	C861.247559,680.863342 866.785522,685.487854 874.894104,685.879639 
	C883.865601,686.313110 889.886292,683.230835 892.447571,676.706177 
	C888.156799,675.719421 884.369751,672.906006 879.552795,676.574646 
	C877.170776,678.388916 873.263489,677.507202 871.500488,672.704590 
	C876.913574,672.704590 881.548828,672.705322 886.184143,672.704468 
	C895.488892,672.702698 897.433472,670.057922 893.004150,661.630127 
	C891.158752,658.118896 887.558105,654.511719 883.927429,653.139954 
	C870.754150,648.162659 856.983154,655.911377 858.974487,672.585693 
M660.625427,677.070190 
	C659.226990,676.128418 657.828552,675.186707 656.430115,674.244995 
	C656.647156,673.731201 656.864136,673.217468 657.081116,672.703735 
	C663.020630,672.703735 668.970825,672.486267 674.896179,672.776306 
	C679.215454,672.987671 679.919922,670.920410 679.503479,667.338257 
	C678.256592,656.612854 670.092773,650.561523 658.519653,651.888062 
	C649.640686,652.905701 643.797119,659.162964 643.305115,668.179626 
	C642.841492,676.676086 648.201416,683.611572 656.699646,685.511414 
	C665.757385,687.536316 674.463135,683.866760 677.137390,676.707336 
	C672.855408,675.631531 668.725098,672.515076 664.359192,676.731812 
	C663.796936,677.274841 662.442505,676.997803 660.625427,677.070190 
M700.382202,685.887512 
	C706.917603,685.694885 712.112793,683.223694 715.702759,676.984985 
	C711.073181,675.820679 707.398010,672.733826 702.519226,676.498413 
	C700.259521,678.242126 696.088196,678.011963 694.565857,672.705322 
	C698.630432,672.705322 702.214294,672.705322 705.798096,672.705322 
	C709.420471,672.705322 713.042847,672.705322 717.109741,672.705322 
	C717.225708,670.496948 717.580688,668.701782 717.367676,666.976746 
	C716.111023,656.798035 708.459167,650.941895 697.645081,651.741577 
	C687.595154,652.484741 681.072144,659.583252 681.300598,669.528137 
	C681.524597,679.278503 688.544312,685.588806 700.382202,685.887512 
M552.737366,676.930481 
	C549.340027,677.495422 546.061890,677.812622 544.150085,672.940918 
	C552.249756,672.940918 559.384338,672.940918 566.397522,672.940918 
	C569.223999,665.100769 564.987244,656.365356 557.119324,653.241272 
	C547.247498,649.321594 536.214355,653.423157 532.630676,662.344971 
	C529.042175,671.278809 532.749939,680.982056 541.145996,684.629517 
	C550.476196,688.682861 561.513184,685.334534 565.369324,676.944092 
	C561.305298,676.747192 557.659851,672.247009 552.737366,676.930481 
M598.112549,652.682190 
	C603.958801,652.263550 609.805054,651.844910 615.765503,651.418091 
	C615.765503,647.961975 615.765503,644.715393 615.765503,641.245972 
	C605.633301,641.245972 595.754578,641.245972 585.333923,641.245972 
	C585.333923,655.423218 585.292419,669.342773 585.439697,683.260315 
	C585.448303,684.072510 586.931091,685.484680 587.819397,685.561768 
	C591.049377,685.841675 594.318359,685.672180 598.141418,685.672180 
	C598.141418,679.660522 598.141418,674.441223 598.141418,668.721802 
	C603.278625,668.721802 607.833374,668.721802 612.388611,668.721802 
	C612.388611,665.270935 612.388611,662.352356 612.388611,658.949097 
	C607.505676,658.949097 602.923645,658.949097 597.937683,658.949097 
	C597.937683,656.842163 597.937683,655.223694 598.112549,652.682190 
M986.686279,683.306274 
	C994.525513,677.946228 997.118958,669.471619 993.465820,661.152161 
	C990.151611,653.604431 981.273499,649.818542 971.920837,651.964844 
	C964.156799,653.746460 959.220886,659.693848 958.987549,667.548462 
	C958.727234,676.309692 962.970398,683.246765 971.000366,684.687927 
	C975.799561,685.549255 981.012024,684.108154 986.686279,683.306274 
M432.692078,683.189819 
	C435.599243,687.368530 439.606689,685.942200 443.610352,685.600342 
	C443.770966,684.712891 444.043884,684.067688 443.973572,683.462341 
	C443.111023,676.036804 442.666046,668.513733 441.060608,661.248474 
	C440.446991,658.471741 437.627502,655.258484 434.982941,654.026306 
	C426.782135,650.205505 418.633057,651.395447 410.581116,656.223145 
	C411.793488,658.771179 412.828735,660.946899 413.844910,663.082642 
	C425.782349,658.641174 428.360809,658.924805 429.400970,663.836487 
	C424.797974,664.528870 419.963898,664.606812 415.602264,666.081787 
	C410.524323,667.798950 408.254150,672.972595 409.308075,677.747009 
	C410.365173,682.535767 414.570007,686.268066 419.825256,685.846924 
	C423.253418,685.572205 426.541656,683.676270 429.924255,682.606750 
	C430.644318,682.379150 431.501648,682.585510 432.692078,683.189819 
M802.108093,653.205566 
	C790.791565,649.481567 780.689575,653.039490 777.124268,662.004822 
	C773.576599,670.925720 777.227478,680.437561 785.670166,684.269958 
	C794.736389,688.385315 805.811401,685.111450 810.045044,677.064514 
	C814.539062,668.522644 811.548706,658.845825 802.108093,653.205566 
M928.482544,675.824463 
	C924.490967,674.801819 920.779785,672.403625 916.250854,674.923645 
	C915.039368,675.597778 910.967712,673.980713 910.582397,672.700928 
	C909.763367,669.980530 909.958435,666.610657 910.862671,663.879517 
	C911.241272,662.736023 915.168884,661.411255 916.300720,662.103088 
	C921.835266,665.486023 925.889221,661.217651 930.797241,660.581787 
	C927.427063,654.383301 922.986572,651.699219 916.026978,651.313293 
	C907.245911,650.826477 899.767273,655.755127 897.526672,663.505615 
	C895.324280,671.124084 898.364685,679.260071 904.838745,683.071655 
	C912.287537,687.457275 923.049438,686.386597 928.351929,680.441772 
	C929.170959,679.523560 932.693665,678.130493 928.482544,675.824463 
M502.290497,683.977722 
	C510.020294,677.415894 508.685089,669.567444 499.211548,666.111816 
	C496.872559,665.258667 494.414490,664.726440 492.092346,663.835144 
	C491.194000,663.490295 490.520966,662.558411 489.745331,661.893921 
	C489.865021,661.448853 489.984741,661.003784 490.104462,660.558716 
	C491.873566,660.698242 493.714233,660.580139 495.392578,661.046387 
	C497.242554,661.560303 498.943542,662.610657 501.066315,663.592346 
	C502.562042,661.180969 503.919312,658.992859 505.338165,656.705444 
	C499.622650,651.612305 493.344208,651.003906 486.800415,652.687378 
	C481.559967,654.035645 478.396423,658.345154 478.311005,663.170410 
	C478.218475,668.394104 481.988495,670.223267 485.949829,671.819763 
	C487.794556,672.563171 489.780365,672.961182 491.612549,673.729614 
	C492.920288,674.278076 494.078583,675.182800 495.303558,675.928528 
	C495.030121,676.619751 494.756683,677.310974 494.483246,678.002136 
	C490.284637,676.782715 486.086029,675.563293 481.428955,674.210754 
	C480.367310,676.093872 479.114136,678.316772 477.732666,680.767151 
	C485.432678,686.416504 493.191528,687.615906 502.290497,683.977722 
M453.994659,671.570740 
	C457.428802,672.888245 460.862976,674.205688 464.297119,675.523193 
	C463.982452,676.372559 463.667755,677.221863 463.353088,678.071228 
	C459.108154,676.830994 454.863251,675.590698 450.209778,674.231018 
	C449.147919,676.149109 447.909760,678.385681 446.552917,680.836609 
	C453.554169,686.084534 460.804443,687.347290 468.580048,685.086548 
	C473.196106,683.744446 475.680206,680.309875 475.855713,675.454407 
	C476.025574,670.754517 473.188629,668.153198 469.167236,666.593872 
	C466.850800,665.695740 464.367340,665.190735 462.127533,664.147156 
	C460.885742,663.568665 459.990784,662.245789 458.939514,661.258362 
	C460.441284,661.097168 462.046234,660.524597 463.421143,660.869324 
	C465.585388,661.411987 467.594879,662.571899 469.854004,663.550232 
	C471.356903,661.092834 472.702057,658.893372 474.075256,656.648010 
	C468.518829,651.679749 462.327423,651.086609 455.975311,652.521057 
	C451.070984,653.628540 447.877411,656.972656 447.158752,662.186157 
	C446.493439,667.012573 449.302399,669.553528 453.994659,671.570740 
M937.003296,643.928223 
	C936.204407,647.061523 939.466125,651.931458 933.226685,652.588257 
	C933.226685,655.351807 933.226685,657.955811 933.226685,660.559753 
	C933.772827,660.414185 934.318970,660.268616 934.865173,660.123047 
	C935.573792,661.736206 936.760254,663.310730 936.894531,664.970398 
	C937.201660,668.768066 936.916321,672.609375 937.014709,676.429260 
	C937.163086,682.192566 940.089233,685.613831 945.871582,685.650879 
	C949.822327,685.676208 953.781311,684.425659 958.071289,683.688049 
	C957.088379,679.800293 956.380737,677.001221 955.693665,674.283691 
	C948.976868,674.881653 948.897095,674.808167 948.875732,668.332947 
	C948.868164,666.045776 948.874512,663.758606 948.874512,661.310425 
	C951.230469,661.069763 953.110779,660.877625 954.892456,660.695618 
	C954.892456,657.622925 954.892456,654.914429 954.892456,652.204590 
	C952.728638,652.020447 950.969849,651.870728 948.758545,651.682556 
	C948.758545,648.311279 948.758545,645.245117 948.758545,641.131287 
	C944.447449,641.836426 940.751282,642.440979 937.003296,643.928223 
M515.701050,639.684021 
	C514.114075,639.755188 512.527100,639.826294 510.746979,639.906128 
	C510.746979,652.933105 510.671387,665.384766 510.789825,677.834473 
	C510.828888,681.939514 513.085876,685.217468 517.126526,685.649475 
	C521.387756,686.105103 525.787720,685.263611 530.562622,684.961243 
	C529.966980,681.174255 529.561096,678.593689 529.164917,676.074585 
	C523.037659,675.968567 522.736633,675.713562 522.713013,669.898865 
	C522.673279,660.107849 522.702087,650.316589 522.702087,640.133789 
	C520.440674,639.968262 518.499390,639.826111 515.701050,639.684021 
M815.984375,662.498779 
	C815.992249,667.492371 815.926941,672.487488 816.029907,677.479126 
	C816.121094,681.899536 818.552734,685.099670 822.762878,685.510803 
	C826.989624,685.923401 831.349854,684.969421 835.954346,684.589355 
	C835.198669,680.654480 834.709656,678.107971 834.154175,675.215576 
	C828.439819,677.137451 827.836670,673.921082 827.863586,669.824951 
	C827.929077,659.876831 827.884949,649.928040 827.884949,639.679688 
	C823.682739,639.679688 819.980957,639.679688 815.984436,639.679688 
	C815.984436,647.204224 815.984436,654.351746 815.984375,662.498779 
M851.609863,675.242737 
	C851.079163,673.563965 850.164734,671.901917 850.090759,670.203247 
	C849.881348,665.398438 850.015930,660.578552 850.015625,655.764648 
	C850.015259,650.375610 850.015564,644.986572 850.015564,639.697021 
	C845.599243,639.697021 842.039124,639.697021 838.172302,639.697021 
	C838.172302,652.686523 838.022522,665.284119 838.255676,677.874695 
	C838.334717,682.138855 841.107361,685.299866 845.359009,685.610046 
	C849.460571,685.909302 853.651611,684.981384 858.211609,684.554382 
	C857.502502,680.804626 857.021240,678.259705 856.534729,675.687134 
	C854.955139,675.687134 853.665039,675.687134 851.609863,675.242737 
M619.108093,661.574585 
	C619.108093,669.488464 619.108093,677.402344 619.108093,685.355835 
	C623.519592,685.355835 627.096619,685.355835 631.021851,685.355835 
	C631.021851,680.359802 631.372192,675.679626 630.928650,671.075989 
	C630.431763,665.919556 632.745911,663.690063 637.455933,663.092346 
	C638.734497,662.930054 640.004517,662.699890 641.457886,662.472900 
	C641.457886,658.961731 641.457886,655.692200 641.457886,650.780334 
	C637.126831,652.908020 633.644043,654.618958 630.266907,656.278015 
	C630.059875,655.217102 629.791992,653.844543 629.571838,652.716431 
	C625.894165,652.716431 622.652039,652.716431 619.108093,652.716431 
	C619.108093,655.628723 619.108093,658.115234 619.108093,661.574585 
M1009.959595,653.171997 
	C1006.490234,652.667969 1003.020935,652.163879 999.382935,651.635315 
	C999.382935,663.349670 999.382935,673.909851 999.382935,685.015564 
	C1001.410339,685.015564 1003.192261,685.015564 1004.974182,685.015564 
	C1006.894958,685.015564 1008.815735,685.015564 1011.015564,685.015564 
	C1011.015564,681.694946 1011.015503,679.059570 1011.015503,676.424255 
	C1011.015442,665.128845 1011.015503,665.128845 1021.366882,661.546875 
	C1021.366882,658.312256 1021.366882,655.072571 1021.366882,650.190430 
	C1017.018494,652.432373 1013.591125,654.199524 1010.140564,655.978638 
	C1010.111511,655.545471 1010.058838,654.760376 1009.959595,653.171997 
M278.484924,623.286499 
	C282.142517,623.285339 285.816040,623.481812 289.450012,623.188354 
	C290.958832,623.066467 292.383179,621.898193 293.845947,621.205872 
	C292.352814,620.511047 290.863861,619.222656 289.365906,619.212158 
	C272.076813,619.090393 254.785858,619.108704 237.497238,619.278503 
	C236.020340,619.292969 234.556717,620.658569 233.086899,621.396545 
	C234.587646,622.053467 236.083252,623.266296 237.589951,623.280273 
	C250.888397,623.403381 264.188812,623.313416 278.484924,623.286499 
M237.146851,578.717224 
	C235.795456,579.358459 234.444061,579.999695 233.092651,580.640869 
	C234.525665,581.386353 235.953857,582.769348 237.392441,582.780273 
	C254.674316,582.911072 271.957947,582.872070 289.240387,582.763611 
	C290.828430,582.753662 292.411591,581.961487 294.530518,581.388245 
	C293.556549,580.145935 293.175537,579.226929 292.783539,579.222168 
	C274.533844,579.002869 256.283173,578.863159 237.146851,578.717224 
M205.446732,609.795349 
	C197.115768,613.120667 194.031357,621.538696 198.693848,628.225464 
	C202.076080,633.076172 208.348709,634.812866 213.726685,632.387573 
	C219.141632,629.945618 221.966660,623.991821 220.387115,618.350830 
	C218.599426,611.966492 213.476440,608.813904 205.446732,609.795349 
M217.736313,572.837585 
	C212.433258,567.957947 206.078873,567.369812 201.099472,571.297852 
	C196.536667,574.897217 195.237976,581.473999 198.080261,586.587952 
	C201.385040,592.534058 208.437805,594.618225 214.423264,591.417603 
	C220.855667,587.977966 222.395111,580.674072 217.736313,572.837585 
M208.503235,530.017090 
	C200.285202,531.220276 195.806839,536.369934 196.642578,543.655518 
	C197.405533,550.306396 203.147034,554.788208 210.027557,554.103699 
	C215.814072,553.528076 220.296173,548.774841 220.707520,542.777710 
	C221.145615,536.390625 216.930557,531.676636 208.503235,530.017090 
M215.388611,649.891968 
	C209.074570,646.826416 204.050980,647.440369 199.899963,651.785034 
	C196.361252,655.488708 195.595352,661.776794 198.286346,666.131775 
	C200.983505,670.496826 204.983368,672.555542 210.094635,671.988220 
	C215.212402,671.420288 218.645187,668.538940 220.251129,663.642578 
	C222.028610,658.223206 220.191895,653.884094 215.388611,649.891968 
M258.499786,657.921875 
	C251.672241,657.933899 244.839783,657.810547 238.020737,658.057556 
	C236.407364,658.116028 234.839066,659.418823 233.250015,660.149231 
	C234.786575,660.768494 236.319519,661.915344 237.860260,661.925964 
	C255.011780,662.043518 272.164917,662.035034 289.316162,661.888000 
	C290.821503,661.875122 292.316437,660.643494 293.816193,659.977966 
	C292.369141,659.291077 290.932068,658.034668 289.473419,658.009155 
	C279.484772,657.833862 269.491547,657.916626 258.499786,657.921875 
M262.499969,544.084351 
	C271.651031,544.069519 280.803314,544.121887 289.951813,543.960510 
	C291.184326,543.938782 292.397858,542.840698 293.620178,542.241028 
	C292.389191,541.492371 291.162994,540.101013 289.926483,540.091797 
	C272.290771,539.960449 254.653275,539.971497 237.017578,540.117310 
	C235.715240,540.128052 234.423599,541.433533 233.126999,542.137146 
	C234.431763,542.785400 235.725128,543.966797 237.043121,543.994934 
	C245.192307,544.169067 253.347046,544.083618 262.499969,544.084351 
z"/>
<path fill="#F1AEBB" opacity="1.000000" stroke="none" 
	d="
M641.123413,582.033325 
	C640.871704,577.337524 640.672180,573.232910 647.106689,574.463318 
	C647.643372,574.565979 649.169006,572.770874 649.181274,571.843506 
	C649.328491,560.726746 649.276428,549.607361 649.276428,538.693237 
	C646.337769,537.828308 642.514465,537.663696 642.107788,536.399658 
	C640.977417,532.886475 640.977600,528.900879 641.180664,525.136902 
	C641.238098,524.073303 643.496765,522.322693 644.802063,522.269592 
	C650.944153,522.019714 657.125854,521.993652 663.247803,522.471863 
	C665.016479,522.609924 667.033142,524.377075 668.253784,525.932678 
	C675.225220,534.817078 681.968140,543.880371 688.850403,552.835388 
	C689.865845,554.156616 691.209534,555.225586 693.196655,557.202393 
	C693.196655,550.157837 693.196655,544.466003 693.196655,538.386414 
	C690.844299,538.145752 688.788513,537.935364 686.613953,537.712891 
	C686.613953,533.426819 686.346741,529.296204 686.785889,525.242126 
	C686.908752,524.108765 689.093384,522.358582 690.368958,522.325745 
	C699.013489,522.103943 707.667847,522.259888 716.318970,522.308899 
	C718.961609,522.323914 720.337646,523.515442 720.023804,526.322754 
	C719.913513,527.309143 720.008667,528.318420 720.008667,529.317261 
	C720.008667,536.960693 720.008545,536.960693 712.018860,538.340027 
	C712.018860,542.661072 711.947815,547.084595 712.033630,551.504944 
	C712.210938,560.632324 712.661377,569.758240 712.652039,578.884399 
	C712.639404,591.237610 712.191711,589.601990 702.229553,589.885803 
	C697.564270,590.018677 694.292297,588.334473 691.454163,584.317322 
	C684.388245,574.316040 676.772888,564.703125 668.549072,553.839111 
	C668.549072,561.247314 668.549072,567.332275 668.549072,573.636780 
	C670.625061,574.025146 672.540344,574.383484 674.458618,574.742371 
	C674.657043,575.328064 674.940918,575.780212 674.943542,576.233887 
	C674.967529,580.360596 676.378052,585.471130 674.450256,588.284302 
	C673.059143,590.314514 667.213867,589.421631 663.344543,589.592346 
	C658.358826,589.812256 653.362671,589.840637 648.370605,589.864807 
	C640.826294,589.901245 640.826111,589.869385 641.123413,582.033325 
z"/>
<path fill="#F1AEBB" opacity="1.000000" stroke="none" 
	d="
M428.795807,589.648621 
	C421.174530,589.696228 414.023285,589.637085 406.886444,589.929504 
	C402.589996,590.105530 401.124329,588.330505 401.785278,584.263184 
	C401.997131,582.959595 402.065887,581.600708 401.966827,580.284668 
	C401.680450,576.479614 402.014313,573.534241 407.208435,574.479431 
	C407.974731,574.618896 409.963745,572.618958 409.980865,571.585632 
	C410.148560,561.442017 410.138458,551.289490 409.810760,541.151489 
	C409.772552,539.969055 407.520691,537.908203 406.279083,537.896057 
	C402.807648,537.862305 402.185120,536.109375 401.865936,533.253235 
	C400.649841,522.371094 401.107513,522.413818 411.866852,521.825317 
	C422.076691,521.266968 429.463287,523.562561 434.660736,533.388245 
	C438.484741,540.617554 444.719055,546.558838 449.741547,553.178589 
	C450.712006,554.457642 451.044342,556.220825 451.671021,557.760742 
	C452.390808,557.128296 453.110565,556.495911 453.830322,555.863464 
	C453.830322,550.169067 453.830322,544.474670 453.830322,538.387451 
	C451.623688,538.164978 449.582947,537.959290 447.689941,537.768494 
	C447.466095,537.444031 447.304840,537.315308 447.286438,537.168640 
	C445.468933,522.691589 445.951538,522.111206 460.056244,522.132751 
	C465.547577,522.141113 471.038727,522.247437 476.530090,522.261963 
	C479.558868,522.269958 481.310822,523.405396 480.885437,526.744202 
	C480.801910,527.399719 480.873901,528.075012 480.874969,528.741211 
	C480.888000,536.856689 480.888062,536.856689 473.237976,538.308105 
	C473.237976,551.377869 473.152283,564.476379 473.261627,577.573242 
	C473.375000,591.152954 473.551544,590.114136 460.844177,589.582886 
	C458.320526,589.477417 455.182617,587.635315 453.543396,585.610229 
	C445.905579,576.174622 438.696686,566.392029 431.324799,556.740845 
	C430.881592,556.160645 430.355438,555.643677 429.240906,554.394531 
	C429.240906,561.374817 429.240906,567.404297 429.237427,573.436829 
	C436.037476,575.217163 436.997437,577.194580 436.094360,586.402710 
	C435.593750,591.506836 431.834167,589.210754 428.795807,589.648621 
z"/>
<path fill="#F1AEBB" opacity="1.000000" stroke="none" 
	d="
M885.732849,548.522217 
	C885.759644,544.494202 885.759644,540.906006 885.759644,537.032715 
	C882.623108,537.032715 880.512939,537.032715 877.564880,537.032715 
	C877.564880,532.677368 877.302429,528.584106 877.741211,524.567444 
	C877.857361,523.504456 880.126099,521.877075 881.418335,521.865723 
	C894.568054,521.750305 907.726868,521.683167 920.869934,522.061218 
	C937.632629,522.543335 948.098511,536.113953 943.863586,551.395142 
	C942.517029,556.253967 940.032654,560.262817 935.299072,562.458557 
	C932.162231,563.913574 932.179138,565.627441 934.098511,568.271423 
	C936.609314,571.730286 938.823303,575.016235 944.021240,574.186218 
	C945.033691,574.024536 947.316223,576.196655 947.492981,577.498657 
	C947.980103,581.086670 947.661316,584.783997 947.661316,589.003723 
	C938.277710,589.003723 929.360291,589.003723 919.426392,589.003723 
	C922.521667,580.003357 917.879456,574.220825 912.581787,569.024231 
	C911.120667,567.590942 908.099426,567.748108 905.324219,567.058838 
	C905.324219,569.979187 905.324219,572.065857 905.324219,574.486755 
	C906.406067,574.660889 907.499634,575.007996 908.583008,574.978638 
	C911.623352,574.896301 912.794678,576.439026 912.666992,579.286560 
	C912.659546,579.452820 912.665466,579.619629 912.662964,579.786194 
	C912.520264,589.244812 912.053711,589.570190 902.516174,589.327759 
	C895.869629,589.158997 889.213745,589.376770 882.562073,589.377441 
	C880.951416,589.377625 879.340759,589.202698 877.848999,589.115295 
	C877.848999,583.853821 877.848999,579.075928 877.848999,573.958069 
	C880.357666,573.958069 882.467896,573.958069 885.706055,573.958069 
	C885.706055,565.409058 885.706055,557.185486 885.732849,548.522217 
M905.278992,537.915710 
	C905.278992,542.810181 905.278992,547.704590 905.278992,553.355042 
	C910.180847,553.113647 914.758240,553.020569 919.309875,552.628174 
	C924.206055,552.205994 925.469116,548.819519 925.296875,544.539368 
	C925.123840,540.240540 922.354797,537.156250 918.279114,537.053223 
	C914.172424,536.949341 910.057373,537.173218 905.278992,537.915710 
z"/>
<path fill="#F1AEBB" opacity="1.000000" stroke="none" 
	d="
M861.997559,582.007080 
	C846.855835,595.543213 817.684204,593.357727 805.504028,578.555664 
	C798.035889,569.479919 796.711426,558.973755 798.686646,548.013489 
	C802.515320,526.768494 820.528259,520.088501 838.042969,520.570068 
	C850.836792,520.921936 861.136597,525.703308 868.244263,537.515625 
	C875.085571,548.885376 873.943909,571.727295 861.997559,582.007080 
M822.952576,569.573914 
	C832.463867,577.078003 843.935303,575.985962 849.935791,566.799316 
	C854.174072,560.310425 854.385620,553.202087 851.161499,546.367920 
	C848.579590,540.895020 844.235168,537.167969 837.649048,536.840637 
	C829.751648,536.448059 823.112915,538.523499 819.244934,545.977417 
	C815.231445,553.711670 816.494141,562.240112 822.952576,569.573914 
z"/>
<path fill="#F0ADBB" opacity="1.000000" stroke="none" 
	d="
M626.642822,522.161865 
	C629.880188,521.744934 631.717163,522.626404 631.754333,525.726562 
	C631.818115,531.053650 631.851196,536.381531 631.847656,541.709045 
	C631.845703,544.697449 630.163086,545.857117 627.327087,545.609863 
	C626.498535,545.537659 625.668945,545.310059 624.848022,545.345337 
	C619.991333,545.553711 615.462830,545.428406 617.031860,538.353821 
	C611.697998,538.353821 606.764221,538.300903 601.832275,538.372192 
	C598.485107,538.420532 599.024597,540.972229 599.018982,543.087402 
	C599.012268,545.614868 598.760071,548.430054 602.412903,548.585449 
	C605.064087,548.698181 607.729187,548.441040 610.388855,548.406616 
	C614.161316,548.357849 616.558228,549.625671 615.689209,554.022156 
	C615.498962,554.984802 615.502441,556.000732 615.529419,556.988953 
	C615.716980,563.874817 615.520447,564.048035 608.687439,563.526550 
	C607.377197,563.426575 606.039490,563.545837 604.724670,563.671448 
	C598.869019,564.230957 597.748840,565.724182 599.408875,571.201111 
	C599.702820,572.171265 601.010620,573.481934 601.896423,573.518555 
	C607.171082,573.736389 612.459412,573.626282 617.110413,573.626282 
	C618.234131,570.831482 618.724792,567.536377 619.785828,567.341125 
	C623.785217,566.605286 627.974731,566.765137 632.079102,566.931885 
	C632.533752,566.950378 633.219299,569.155334 633.250366,570.360474 
	C633.378906,575.340393 633.140076,580.332336 633.345520,585.307068 
	C633.488403,588.766174 632.179504,590.070007 628.735962,590.043030 
	C611.746277,589.909790 594.755493,589.864380 577.765320,589.898010 
	C573.409363,589.906677 571.731506,587.993774 572.322449,583.753113 
	C572.597290,581.780579 572.630005,579.773926 572.761475,577.781921 
	C572.913330,575.480347 573.692932,573.795227 576.435791,574.416504 
	C579.052856,575.009216 580.245850,573.932922 580.251770,571.386536 
	C580.275696,561.062256 580.325745,550.737183 580.188171,540.414795 
	C580.174866,539.417175 578.856689,537.536438 578.270874,537.585266 
	C571.869019,538.118469 572.456482,533.417969 572.410583,529.655273 
	C572.319519,522.201599 572.846252,522.191833 580.316772,522.520813 
	C587.612732,522.842163 594.941650,522.381409 602.256531,522.315247 
	C610.231323,522.243042 618.206604,522.229675 626.642822,522.161865 
z"/>
<path fill="#F1ADBB" opacity="1.000000" stroke="none" 
	d="
M523.978943,559.864990 
	C524.644043,561.876160 525.234436,563.502502 525.824768,565.128906 
	C526.309814,565.159180 526.794861,565.189514 527.279846,565.219849 
	C530.728271,556.225098 534.176697,547.230347 537.519104,538.512207 
	C535.229370,537.439148 531.909729,536.754944 531.768921,535.661499 
	C531.250000,531.632141 531.596375,527.443237 532.117371,523.378479 
	C532.198364,522.746338 534.878662,522.081665 536.367737,522.055847 
	C544.991455,521.906067 553.622559,521.806030 562.240051,522.061951 
	C563.564575,522.101318 565.601074,523.861572 565.963562,525.192261 
	C566.690857,527.861877 566.844421,530.826782 566.516846,533.584534 
	C566.359985,534.905151 564.561829,537.069092 563.513306,537.065430 
	C559.013855,537.049622 557.571228,540.049377 556.139099,543.337646 
	C550.105042,557.192078 543.942322,570.992310 538.095886,584.925415 
	C536.594727,588.502991 534.737549,590.090027 530.719055,589.951660 
	C516.041382,589.446350 518.278137,592.710022 511.942383,577.213257 
	C506.791199,564.613770 501.122742,552.221497 495.428162,539.854980 
	C494.853027,538.606018 492.550049,538.084961 490.971863,537.404968 
	C490.465454,537.186768 489.154022,537.651794 489.148682,537.623962 
	C488.375397,533.602051 487.397522,529.578369 487.188904,525.515747 
	C487.131897,524.406372 489.368958,522.197327 490.602173,522.161133 
	C499.245300,521.907349 507.901642,522.157471 516.552917,522.104065 
	C520.354492,522.080627 522.068726,523.751587 521.864380,527.522278 
	C521.792419,528.849426 521.904236,530.185608 521.861084,531.515381 
	C521.741455,535.201416 521.456055,538.767029 515.242004,536.936218 
	C518.367371,545.070190 521.135803,552.275146 523.978943,559.864990 
z"/>
<path fill="#E5AABD" opacity="1.000000" stroke="none" 
	d="
M308.777771,683.989868 
	C309.584045,682.523071 310.200104,681.136597 310.199860,679.750183 
	C310.190918,626.932190 310.126495,574.114258 310.059326,521.296265 
	C310.058075,520.330261 309.934479,519.364319 309.846619,518.087830 
	C266.680328,518.087830 223.774124,518.087830 180.115692,518.087830 
	C180.115692,520.165039 180.113739,522.091675 180.115997,524.018311 
	C180.149597,552.676697 180.184219,581.335144 180.216339,609.993530 
	C180.217834,611.326355 180.436737,612.720093 180.116714,613.973755 
	C179.833817,615.082031 178.939545,616.034241 178.315216,617.055359 
	C177.571686,615.969788 176.223083,614.905212 176.184662,613.795227 
	C175.965729,607.470886 176.052689,601.135742 176.047668,594.804260 
	C176.027725,569.644714 176.114380,544.484375 175.899506,519.326477 
	C175.861496,514.877014 177.234848,513.689941 181.584625,513.696838 
	C223.738113,513.763916 265.892303,513.691650 308.045135,513.456604 
	C312.777435,513.430237 314.324219,514.713501 314.316895,519.610413 
	C314.235992,573.593872 314.378906,627.577637 314.452209,681.561279 
	C314.461334,688.262695 314.437347,688.270020 307.935333,688.285339 
	C266.448730,688.383118 224.962173,688.482117 183.475555,688.568604 
	C176.123718,688.583923 176.124557,688.557678 176.117569,680.997314 
	C176.102615,664.835327 176.086212,648.673279 176.072037,632.511292 
	C176.071014,631.345032 175.779755,630.062927 176.168884,629.042786 
	C176.619293,627.862061 177.673706,626.911743 178.465912,625.861450 
	C179.043884,626.888367 180.079330,627.896667 180.121964,628.945374 
	C180.324890,633.936523 180.278259,638.938599 180.282730,643.936829 
	C180.294525,657.087341 180.286728,670.237915 180.286728,684.070190 
	C223.187515,684.070190 265.743805,684.070190 308.777771,683.989868 
z"/>
<path fill="#F1AEBB" opacity="1.000000" stroke="none" 
	d="
M972.141357,571.110596 
	C971.827148,568.725952 972.023804,566.422546 971.024231,564.909485 
	C965.074707,555.903687 958.885803,547.054077 952.649719,538.242371 
	C952.108337,537.477417 950.642212,537.011353 949.606628,537.013000 
	C945.025452,537.020203 943.882202,534.671448 944.626892,530.570312 
	C944.888855,529.127319 944.645996,527.584534 944.570862,526.090393 
	C944.427856,523.247070 945.598145,521.795898 948.594482,521.761108 
	C957.227661,521.660828 965.859314,521.431091 974.492371,521.312134 
	C975.453064,521.298889 976.621399,521.391235 977.346680,521.914917 
	C980.200989,523.975769 978.998718,535.922668 975.172791,538.091248 
	C977.031982,541.095947 978.875488,544.075378 981.296387,547.987854 
	C983.637878,544.215637 985.425110,541.336426 987.195435,538.484314 
	C984.275879,536.097046 982.610901,525.964783 984.780090,523.164673 
	C985.529480,522.197449 987.333557,521.606506 988.660278,521.598694 
	C997.300903,521.548035 1005.942871,521.703064 1014.584229,521.802246 
	C1014.911072,521.805969 1015.299194,521.834229 1015.553284,522.006592 
	C1020.042358,525.051147 1016.469421,529.595581 1017.456421,533.345764 
	C1017.683777,534.209595 1015.207031,536.880249 1014.126099,536.795166 
	C1010.362732,536.499146 1008.840454,538.676208 1007.167297,541.309204 
	C1002.359070,548.875671 997.304138,556.287415 992.597168,563.914795 
	C991.542236,565.624207 991.357605,567.942566 991.048157,570.021667 
	C990.665955,572.589294 991.454590,574.272278 994.582458,573.754456 
	C998.178894,573.158936 999.086243,574.972534 999.069092,578.340759 
	C999.012207,589.528015 999.122314,589.382568 987.629517,588.987183 
	C979.868835,588.720093 972.091492,588.936218 963.745850,588.936218 
	C963.745850,584.410339 963.488159,580.428772 963.912170,576.521118 
	C964.030273,575.433167 966.075500,574.409973 967.399475,573.635803 
	C968.868896,572.776550 970.524719,572.236267 972.141357,571.110596 
z"/>
<path fill="#F0ADBB" opacity="1.000000" stroke="none" 
	d="
M727.066040,538.217834 
	C726.822327,534.445496 726.526123,531.134277 726.429565,527.817322 
	C726.303040,523.470886 728.371765,521.889404 732.830872,521.990723 
	C746.799133,522.308044 760.776367,522.239868 774.750183,522.304443 
	C780.036926,522.328918 785.323975,522.308350 791.557373,522.308350 
	C791.557373,530.146118 791.560120,537.741577 791.547852,545.337036 
	C791.547363,545.661011 791.509705,546.072205 791.317871,546.295593 
	C787.597351,550.628479 782.588318,546.683044 778.332520,548.146545 
	C777.718750,548.357605 775.885864,546.175049 775.215149,544.807007 
	C774.126465,542.586670 776.028259,538.156128 771.568420,538.567627 
	C766.784851,539.008850 769.115356,543.252686 769.051819,545.795654 
	C768.819885,555.075500 768.960083,564.364624 768.960083,573.956177 
	C771.485596,574.164429 773.718323,574.348572 776.178833,574.551453 
	C776.178833,579.470337 776.178833,584.174255 776.178833,589.862183 
	C765.424866,589.862183 755.157227,589.864136 744.889526,589.856079 
	C744.393188,589.855713 743.487183,589.846130 743.460449,589.707703 
	C742.681519,585.677124 741.694153,581.644592 741.489502,577.574646 
	C741.437073,576.532166 743.784790,575.155334 745.253174,574.329163 
	C746.151672,573.823730 747.475525,574.074463 749.634583,573.905090 
	C749.634583,562.862976 749.801025,551.931274 749.547119,541.009277 
	C749.454285,537.014648 746.421509,538.915039 744.542908,538.894531 
	C744.183655,539.525146 743.912292,539.788940 743.889404,540.072754 
	C743.233337,548.200195 743.237610,548.223145 733.876831,548.321106 
	C731.770325,548.343201 729.661560,548.146729 727.102417,548.030396 
	C727.102417,544.610901 727.102417,541.643677 727.066040,538.217834 
z"/>
<path fill="#EEACBB" opacity="1.000000" stroke="none" 
	d="
M358.286865,587.403687 
	C358.228333,585.464172 358.270203,583.967712 358.272614,582.471191 
	C358.284851,574.909851 358.281250,574.909851 365.904480,573.778870 
	C365.904480,561.937744 365.904480,550.036560 365.904480,537.771729 
	C364.044586,537.771729 362.289001,538.142883 360.824036,537.650146 
	C359.721100,537.279175 358.929108,535.846924 358.132080,534.786804 
	C357.894440,534.470703 358.118164,533.815796 358.112061,533.316345 
	C357.969299,521.593201 357.963593,521.712585 369.832703,522.236877 
	C375.467346,522.485779 381.130371,522.289856 386.773315,522.090759 
	C391.448517,521.925964 394.186768,523.389709 393.326508,528.635193 
	C393.246704,529.121704 393.316376,529.632751 393.316132,530.132385 
	C393.312439,537.349976 393.312408,537.349976 385.699280,538.336609 
	C385.699280,540.857788 385.698914,543.454712 385.699310,546.051575 
	C385.700653,554.210571 385.795258,562.371094 385.654114,570.527649 
	C385.603638,573.445557 386.431549,575.018127 389.560303,574.683960 
	C392.909088,574.326294 394.047028,576.090027 393.874146,579.137939 
	C393.855316,579.469727 393.874084,579.804016 393.881958,580.136963 
	C394.103363,589.523560 394.103271,589.506165 384.889893,589.620789 
	C377.898132,589.707825 370.903992,589.997375 363.917511,589.860596 
	C362.055603,589.824158 360.217865,588.551758 358.286865,587.403687 
z"/>
<path fill="#EBABBC" opacity="1.000000" stroke="none" 
	d="
M365.108154,655.011353 
	C365.108154,650.228943 365.108154,645.943848 365.108154,641.392151 
	C369.447784,641.392151 373.202972,641.392151 377.687927,641.392151 
	C377.687927,646.727966 377.687927,651.950867 377.687927,657.415771 
	C382.693604,657.415771 386.973572,657.415771 391.945740,657.415771 
	C391.945740,652.139771 391.945740,646.933044 391.945740,641.424194 
	C396.383179,641.424194 400.142181,641.424194 404.307922,641.424194 
	C404.307922,656.006775 404.307922,670.567993 404.307922,685.512329 
	C400.504852,685.512329 396.758118,685.512329 392.309723,685.512329 
	C392.309723,680.119507 392.309723,674.567749 392.309723,668.679382 
	C387.223602,668.679382 382.829803,668.679382 377.858673,668.679382 
	C377.858673,674.228088 377.858673,679.651184 377.858673,685.478516 
	C373.435455,685.478516 369.578735,685.478516 365.108154,685.478516 
	C365.108154,675.401489 365.108154,665.455017 365.108154,655.011353 
z"/>
<path fill="#EDACBC" opacity="1.000000" stroke="none" 
	d="
M755.988647,674.652954 
	C759.333496,673.388489 762.248352,672.129517 765.163269,670.870483 
	C765.092407,670.423035 765.021484,669.975647 764.950623,669.528259 
	C766.653687,670.478088 768.377258,671.393372 770.053772,672.387939 
	C771.603638,673.307190 773.103149,674.311340 774.597839,675.260986 
	C770.350769,683.279358 760.225220,687.353943 750.792419,685.101013 
	C740.811523,682.717285 733.339417,673.302979 733.173096,662.901917 
	C733.018555,653.244934 740.133362,643.800720 749.439148,641.310120 
	C759.630737,638.582336 769.153503,641.952271 774.053101,650.394531 
	C771.214233,652.455505 768.324890,654.553162 765.473145,656.623474 
	C760.588318,651.758667 755.900696,650.426758 751.546265,652.504456 
	C747.520020,654.425598 745.309570,659.322815 745.962219,664.875854 
	C746.614136,670.422363 749.482727,673.346497 755.988647,674.652954 
z"/>
<path fill="#ECACBC" opacity="1.000000" stroke="none" 
	d="
M858.898804,672.194458 
	C856.983154,655.911377 870.754150,648.162659 883.927429,653.139954 
	C887.558105,654.511719 891.158752,658.118896 893.004150,661.630127 
	C897.433472,670.057922 895.488892,672.702698 886.184143,672.704468 
	C881.548828,672.705322 876.913574,672.704590 871.500488,672.704590 
	C873.263489,677.507202 877.170776,678.388916 879.552795,676.574646 
	C884.369751,672.906006 888.156799,675.719421 892.447571,676.706177 
	C889.886292,683.230835 883.865601,686.313110 874.894104,685.879639 
	C866.785522,685.487854 861.247559,680.863342 858.898804,672.194458 
M876.489868,665.150391 
	C878.041138,665.037292 879.592407,664.924133 881.143677,664.810974 
	C881.326050,664.279419 881.508362,663.747803 881.690735,663.216187 
	C879.934509,662.248047 878.167786,660.505920 876.424927,660.529541 
	C874.685913,660.553040 872.970764,662.345520 871.245178,663.362427 
	C871.448608,663.829651 871.652100,664.296875 871.855591,664.764038 
	C873.098328,664.892639 874.341125,665.021240 876.489868,665.150391 
z"/>
<path fill="#ECACBC" opacity="1.000000" stroke="none" 
	d="
M661.040222,677.085449 
	C662.442505,676.997803 663.796936,677.274841 664.359192,676.731812 
	C668.725098,672.515076 672.855408,675.631531 677.137390,676.707336 
	C674.463135,683.866760 665.757385,687.536316 656.699646,685.511414 
	C648.201416,683.611572 642.841492,676.676086 643.305115,668.179626 
	C643.797119,659.162964 649.640686,652.905701 658.519653,651.888062 
	C670.092773,650.561523 678.256592,656.612854 679.503479,667.338257 
	C679.919922,670.920410 679.215454,672.987671 674.896179,672.776306 
	C668.970825,672.486267 663.020630,672.703735 657.081116,672.703735 
	C656.864136,673.217468 656.647156,673.731201 656.430115,674.244995 
	C657.828552,675.186707 659.226990,676.128418 661.040222,677.085449 
M658.111023,665.135681 
	C660.677368,665.135681 663.243652,665.135681 666.091248,665.135681 
	C665.515137,660.646912 662.872681,660.005066 659.723877,660.565430 
	C657.252136,661.005249 656.611328,662.464844 658.111023,665.135681 
z"/>
<path fill="#ECACBC" opacity="1.000000" stroke="none" 
	d="
M699.940796,685.887695 
	C688.544312,685.588806 681.524597,679.278503 681.300598,669.528137 
	C681.072144,659.583252 687.595154,652.484741 697.645081,651.741577 
	C708.459167,650.941895 716.111023,656.798035 717.367676,666.976746 
	C717.580688,668.701782 717.225708,670.496948 717.109741,672.705322 
	C713.042847,672.705322 709.420471,672.705322 705.798096,672.705322 
	C702.214294,672.705322 698.630432,672.705322 694.565857,672.705322 
	C696.088196,678.011963 700.259521,678.242126 702.519226,676.498413 
	C707.398010,672.733826 711.073181,675.820679 715.702759,676.984985 
	C712.112793,683.223694 706.917603,685.694885 699.940796,685.887695 
M700.970032,660.619690 
	C697.395264,659.850647 694.938049,660.803101 694.278381,664.729919 
	C697.632385,664.729919 700.779419,664.729919 705.175659,664.729919 
	C703.500854,662.876587 702.604614,661.884766 700.970032,660.619690 
z"/>
<path fill="#ECACBC" opacity="1.000000" stroke="none" 
	d="
M553.105103,676.775391 
	C557.659851,672.247009 561.305298,676.747192 565.369324,676.944092 
	C561.513184,685.334534 550.476196,688.682861 541.145996,684.629517 
	C532.749939,680.982056 529.042175,671.278809 532.630676,662.344971 
	C536.214355,653.423157 547.247498,649.321594 557.119324,653.241272 
	C564.987244,656.365356 569.223999,665.100769 566.397522,672.940918 
	C559.384338,672.940918 552.249756,672.940918 544.150085,672.940918 
	C546.061890,677.812622 549.340027,677.495422 553.105103,676.775391 
M545.221069,665.195312 
	C548.085876,665.195312 550.950623,665.195312 553.815430,665.195312 
	C554.029419,664.650452 554.243469,664.105591 554.457458,663.560669 
	C552.746887,662.613586 550.854614,660.691895 549.372070,660.968262 
	C547.553406,661.307190 546.077271,663.483948 545.221069,665.195312 
z"/>
<path fill="#ECACBC" opacity="1.000000" stroke="none" 
	d="
M598.025146,653.143677 
	C597.937683,655.223694 597.937683,656.842163 597.937683,658.949097 
	C602.923645,658.949097 607.505676,658.949097 612.388611,658.949097 
	C612.388611,662.352356 612.388611,665.270935 612.388611,668.721802 
	C607.833374,668.721802 603.278625,668.721802 598.141418,668.721802 
	C598.141418,674.441223 598.141418,679.660522 598.141418,685.672180 
	C594.318359,685.672180 591.049377,685.841675 587.819397,685.561768 
	C586.931091,685.484680 585.448303,684.072510 585.439697,683.260315 
	C585.292419,669.342773 585.333923,655.423218 585.333923,641.245972 
	C595.754578,641.245972 605.633301,641.245972 615.765503,641.245972 
	C615.765503,644.715393 615.765503,647.961975 615.765503,651.418091 
	C609.805054,651.844910 603.958801,652.263550 598.025146,653.143677 
z"/>
<path fill="#EEACBB" opacity="1.000000" stroke="none" 
	d="
M986.362488,683.504150 
	C981.012024,684.108154 975.799561,685.549255 971.000366,684.687927 
	C962.970398,683.246765 958.727234,676.309692 958.987549,667.548462 
	C959.220886,659.693848 964.156799,653.746460 971.920837,651.964844 
	C981.273499,649.818542 990.151611,653.604431 993.465820,661.152161 
	C997.118958,669.471619 994.525513,677.946228 986.362488,683.504150 
M971.990540,672.412842 
	C974.045715,675.769104 977.632874,676.679749 979.913391,674.217224 
	C981.730774,672.254822 982.216370,668.187195 981.726562,665.321899 
	C981.475708,663.854248 977.722473,661.918823 975.674438,662.053589 
	C971.777954,662.310120 971.222412,665.906372 971.191772,669.220520 
	C971.184326,670.024109 971.558472,670.831360 971.990540,672.412842 
z"/>
<path fill="#EEACBB" opacity="1.000000" stroke="none" 
	d="
M432.493896,682.890869 
	C431.501648,682.585510 430.644318,682.379150 429.924255,682.606750 
	C426.541656,683.676270 423.253418,685.572205 419.825256,685.846924 
	C414.570007,686.268066 410.365173,682.535767 409.308075,677.747009 
	C408.254150,672.972595 410.524323,667.798950 415.602264,666.081787 
	C419.963898,664.606812 424.797974,664.528870 429.400970,663.836487 
	C428.360809,658.924805 425.782349,658.641174 413.844910,663.082642 
	C412.828735,660.946899 411.793488,658.771179 410.581116,656.223145 
	C418.633057,651.395447 426.782135,650.205505 434.982941,654.026306 
	C437.627502,655.258484 440.446991,658.471741 441.060608,661.248474 
	C442.666046,668.513733 443.111023,676.036804 443.973572,683.462341 
	C444.043884,684.067688 443.770966,684.712891 443.610352,685.600342 
	C439.606689,685.942200 435.599243,687.368530 432.493896,682.890869 
M423.821014,670.992065 
	C422.813873,672.438538 421.806702,673.885071 420.799561,675.331543 
	C421.995178,675.993713 423.487091,677.465027 424.327637,677.157349 
	C426.364746,676.411499 428.098480,674.837036 429.954498,673.596558 
	C428.191681,672.691284 426.428833,671.786011 423.821014,670.992065 
z"/>
<path fill="#EFADBB" opacity="1.000000" stroke="none" 
	d="
M802.444092,653.380188 
	C811.548706,658.845825 814.539062,668.522644 810.045044,677.064514 
	C805.811401,685.111450 794.736389,688.385315 785.670166,684.269958 
	C777.227478,680.437561 773.576599,670.925720 777.124268,662.004822 
	C780.689575,653.039490 790.791565,649.481567 802.444092,653.380188 
M792.010864,662.122009 
	C788.122375,665.135315 787.026855,669.170349 789.103027,672.832642 
	C791.185791,676.506592 796.302551,676.704102 798.547485,673.197205 
	C801.717529,668.245178 798.755981,662.449951 792.010864,662.122009 
z"/>
<path fill="#ECACBC" opacity="1.000000" stroke="none" 
	d="
M928.833008,675.918579 
	C932.693665,678.130493 929.170959,679.523560 928.351929,680.441772 
	C923.049438,686.386597 912.287537,687.457275 904.838745,683.071655 
	C898.364685,679.260071 895.324280,671.124084 897.526672,663.505615 
	C899.767273,655.755127 907.245911,650.826477 916.026978,651.313293 
	C922.986572,651.699219 927.427063,654.383301 930.797241,660.581787 
	C925.889221,661.217651 921.835266,665.486023 916.300720,662.103088 
	C915.168884,661.411255 911.241272,662.736023 910.862671,663.879517 
	C909.958435,666.610657 909.763367,669.980530 910.582397,672.700928 
	C910.967712,673.980713 915.039368,675.597778 916.250854,674.923645 
	C920.779785,672.403625 924.490967,674.801819 928.833008,675.918579 
z"/>
<path fill="#EDACBC" opacity="1.000000" stroke="none" 
	d="
M501.960815,684.182983 
	C493.191528,687.615906 485.432678,686.416504 477.732666,680.767151 
	C479.114136,678.316772 480.367310,676.093872 481.428955,674.210754 
	C486.086029,675.563293 490.284637,676.782715 494.483246,678.002136 
	C494.756683,677.310974 495.030121,676.619751 495.303558,675.928528 
	C494.078583,675.182800 492.920288,674.278076 491.612549,673.729614 
	C489.780365,672.961182 487.794556,672.563171 485.949829,671.819763 
	C481.988495,670.223267 478.218475,668.394104 478.311005,663.170410 
	C478.396423,658.345154 481.559967,654.035645 486.800415,652.687378 
	C493.344208,651.003906 499.622650,651.612305 505.338165,656.705444 
	C503.919312,658.992859 502.562042,661.180969 501.066315,663.592346 
	C498.943542,662.610657 497.242554,661.560303 495.392578,661.046387 
	C493.714233,660.580139 491.873566,660.698242 490.104462,660.558716 
	C489.984741,661.003784 489.865021,661.448853 489.745331,661.893921 
	C490.520966,662.558411 491.194000,663.490295 492.092346,663.835144 
	C494.414490,664.726440 496.872559,665.258667 499.211548,666.111816 
	C508.685089,669.567444 510.020294,677.415894 501.960815,684.182983 
z"/>
<path fill="#ECACBC" opacity="1.000000" stroke="none" 
	d="
M453.654999,671.404480 
	C449.302399,669.553528 446.493439,667.012573 447.158752,662.186157 
	C447.877411,656.972656 451.070984,653.628540 455.975311,652.521057 
	C462.327423,651.086609 468.518829,651.679749 474.075256,656.648010 
	C472.702057,658.893372 471.356903,661.092834 469.854004,663.550232 
	C467.594879,662.571899 465.585388,661.411987 463.421143,660.869324 
	C462.046234,660.524597 460.441284,661.097168 458.939514,661.258362 
	C459.990784,662.245789 460.885742,663.568665 462.127533,664.147156 
	C464.367340,665.190735 466.850800,665.695740 469.167236,666.593872 
	C473.188629,668.153198 476.025574,670.754517 475.855713,675.454407 
	C475.680206,680.309875 473.196106,683.744446 468.580048,685.086548 
	C460.804443,687.347290 453.554169,686.084534 446.552917,680.836609 
	C447.909760,678.385681 449.147919,676.149109 450.209778,674.231018 
	C454.863251,675.590698 459.108154,676.830994 463.353088,678.071228 
	C463.667755,677.221863 463.982452,676.372559 464.297119,675.523193 
	C460.862976,674.205688 457.428802,672.888245 453.654999,671.404480 
z"/>
<path fill="#F1AEBB" opacity="1.000000" stroke="none" 
	d="
M937.029175,643.486877 
	C940.751282,642.440979 944.447449,641.836426 948.758545,641.131287 
	C948.758545,645.245117 948.758545,648.311279 948.758545,651.682556 
	C950.969849,651.870728 952.728638,652.020447 954.892456,652.204590 
	C954.892456,654.914429 954.892456,657.622925 954.892456,660.695618 
	C953.110779,660.877625 951.230469,661.069763 948.874512,661.310425 
	C948.874512,663.758606 948.868164,666.045776 948.875732,668.332947 
	C948.897095,674.808167 948.976868,674.881653 955.693665,674.283691 
	C956.380737,677.001221 957.088379,679.800293 958.071289,683.688049 
	C953.781311,684.425659 949.822327,685.676208 945.871582,685.650879 
	C940.089233,685.613831 937.163086,682.192566 937.014709,676.429260 
	C936.916321,672.609375 937.201660,668.768066 936.894531,664.970398 
	C936.760254,663.310730 935.573792,661.736206 934.865173,660.123047 
	C934.318970,660.268616 933.772827,660.414185 933.226685,660.559753 
	C933.226685,657.955811 933.226685,655.351807 933.226685,652.588257 
	C939.466125,651.931458 936.204407,647.061523 937.029175,643.486877 
z"/>
<path fill="#EEACBB" opacity="1.000000" stroke="none" 
	d="
M516.129639,639.684021 
	C518.499390,639.826111 520.440674,639.968262 522.702087,640.133789 
	C522.702087,650.316589 522.673279,660.107849 522.713013,669.898865 
	C522.736633,675.713562 523.037659,675.968567 529.164917,676.074585 
	C529.561096,678.593689 529.966980,681.174255 530.562622,684.961243 
	C525.787720,685.263611 521.387756,686.105103 517.126526,685.649475 
	C513.085876,685.217468 510.828888,681.939514 510.789825,677.834473 
	C510.671387,665.384766 510.746979,652.933105 510.746979,639.906128 
	C512.527100,639.826294 514.114075,639.755188 516.129639,639.684021 
z"/>
<path fill="#EEACBB" opacity="1.000000" stroke="none" 
	d="
M815.984375,661.999023 
	C815.984436,654.351746 815.984436,647.204224 815.984436,639.679688 
	C819.980957,639.679688 823.682739,639.679688 827.884949,639.679688 
	C827.884949,649.928040 827.929077,659.876831 827.863586,669.824951 
	C827.836670,673.921082 828.439819,677.137451 834.154175,675.215576 
	C834.709656,678.107971 835.198669,680.654480 835.954346,684.589355 
	C831.349854,684.969421 826.989624,685.923401 822.762878,685.510803 
	C818.552734,685.099670 816.121094,681.899536 816.029907,677.479126 
	C815.926941,672.487488 815.992249,667.492371 815.984375,661.999023 
z"/>
<path fill="#EEACBB" opacity="1.000000" stroke="none" 
	d="
M851.992432,675.464966 
	C853.665039,675.687134 854.955139,675.687134 856.534729,675.687134 
	C857.021240,678.259705 857.502502,680.804626 858.211609,684.554382 
	C853.651611,684.981384 849.460571,685.909302 845.359009,685.610046 
	C841.107361,685.299866 838.334717,682.138855 838.255676,677.874695 
	C838.022522,665.284119 838.172302,652.686523 838.172302,639.697021 
	C842.039124,639.697021 845.599243,639.697021 850.015564,639.697021 
	C850.015564,644.986572 850.015259,650.375610 850.015625,655.764648 
	C850.015930,660.578552 849.881348,665.398438 850.090759,670.203247 
	C850.164734,671.901917 851.079163,673.563965 851.992432,675.464966 
z"/>
<path fill="#EBABBC" opacity="1.000000" stroke="none" 
	d="
M619.108093,661.088135 
	C619.108093,658.115234 619.108093,655.628723 619.108093,652.716431 
	C622.652039,652.716431 625.894165,652.716431 629.571838,652.716431 
	C629.791992,653.844543 630.059875,655.217102 630.266907,656.278015 
	C633.644043,654.618958 637.126831,652.908020 641.457886,650.780334 
	C641.457886,655.692200 641.457886,658.961731 641.457886,662.472900 
	C640.004517,662.699890 638.734497,662.930054 637.455933,663.092346 
	C632.745911,663.690063 630.431763,665.919556 630.928650,671.075989 
	C631.372192,675.679626 631.021851,680.359802 631.021851,685.355835 
	C627.096619,685.355835 623.519592,685.355835 619.108093,685.355835 
	C619.108093,677.402344 619.108093,669.488464 619.108093,661.088135 
z"/>
<path fill="#EEACBB" opacity="1.000000" stroke="none" 
	d="
M1009.982910,653.573669 
	C1010.058838,654.760376 1010.111511,655.545471 1010.140564,655.978638 
	C1013.591125,654.199524 1017.018494,652.432373 1021.366882,650.190430 
	C1021.366882,655.072571 1021.366882,658.312256 1021.366882,661.546875 
	C1011.015503,665.128845 1011.015442,665.128845 1011.015503,676.424255 
	C1011.015503,679.059570 1011.015564,681.694946 1011.015564,685.015564 
	C1008.815735,685.015564 1006.894958,685.015564 1004.974182,685.015564 
	C1003.192261,685.015564 1001.410339,685.015564 999.382935,685.015564 
	C999.382935,673.909851 999.382935,663.349670 999.382935,651.635315 
	C1003.020935,652.163879 1006.490234,652.667969 1009.982910,653.573669 
z"/>
<path fill="#E5AABD" opacity="1.000000" stroke="none" 
	d="
M277.986786,623.286499 
	C264.188812,623.313416 250.888397,623.403381 237.589951,623.280273 
	C236.083252,623.266296 234.587646,622.053467 233.086914,621.396545 
	C234.556717,620.658569 236.020340,619.292969 237.497238,619.278503 
	C254.785858,619.108704 272.076813,619.090393 289.365906,619.212158 
	C290.863861,619.222656 292.352814,620.511047 293.845947,621.205811 
	C292.383179,621.898193 290.958832,623.066467 289.450012,623.188354 
	C285.816040,623.481812 282.142517,623.285339 277.986786,623.286499 
z"/>
<path fill="#E5AABD" opacity="1.000000" stroke="none" 
	d="
M237.589737,578.715759 
	C256.283173,578.863159 274.533844,579.002869 292.783539,579.222168 
	C293.175537,579.226929 293.556549,580.145935 294.530518,581.388245 
	C292.411591,581.961487 290.828430,582.753662 289.240387,582.763611 
	C271.957947,582.872070 254.674316,582.911072 237.392441,582.780273 
	C235.953857,582.769348 234.525665,581.386353 233.092651,580.640869 
	C234.444061,579.999695 235.795456,579.358459 237.589737,578.715759 
z"/>
<path fill="#E5AABD" opacity="1.000000" stroke="none" 
	d="
M205.829498,609.711670 
	C213.476440,608.813904 218.599426,611.966492 220.387115,618.350830 
	C221.966660,623.991821 219.141632,629.945618 213.726685,632.387573 
	C208.348709,634.812866 202.076080,633.076172 198.693848,628.225464 
	C194.031357,621.538696 197.115768,613.120667 205.829498,609.711670 
M206.094666,628.949585 
	C213.096420,629.730713 217.749939,625.857178 216.580124,620.123840 
	C215.799805,616.299316 213.443466,613.803467 209.491669,613.463928 
	C205.631714,613.132202 202.522827,614.835510 201.251938,618.569458 
	C199.777008,622.903015 201.257523,626.404663 206.094666,628.949585 
z"/>
<path fill="#E5AABD" opacity="1.000000" stroke="none" 
	d="
M217.978210,573.120361 
	C222.395111,580.674072 220.855667,587.977966 214.423264,591.417603 
	C208.437805,594.618225 201.385040,592.534058 198.080261,586.587952 
	C195.237976,581.473999 196.536667,574.897217 201.099472,571.297852 
	C206.078873,567.369812 212.433258,567.957947 217.978210,573.120361 
M207.000305,588.624939 
	C213.207672,588.657837 217.127823,585.224304 216.678986,580.147705 
	C216.265106,575.466248 211.811630,571.660522 207.305893,573.157166 
	C204.796509,573.990723 201.993668,576.643921 201.124588,579.111572 
	C199.628906,583.358154 201.898209,586.747681 207.000305,588.624939 
z"/>
<path fill="#E5AABD" opacity="1.000000" stroke="none" 
	d="
M208.911469,530.029480 
	C216.930557,531.676636 221.145615,536.390625 220.707520,542.777710 
	C220.296173,548.774841 215.814072,553.528076 210.027557,554.103699 
	C203.147034,554.788208 197.405533,550.306396 196.642578,543.655518 
	C195.806839,536.369934 200.285202,531.220276 208.911469,530.029480 
M207.013321,534.283691 
	C202.575928,535.527344 200.298050,538.453064 200.757187,543.047974 
	C201.141663,546.895752 203.354034,549.410156 207.324249,549.999634 
	C211.850372,550.671509 216.002396,547.543213 216.593491,543.111328 
	C217.240479,538.260376 213.804199,534.765137 207.013321,534.283691 
z"/>
<path fill="#E5AABD" opacity="1.000000" stroke="none" 
	d="
M215.703476,650.106445 
	C220.191895,653.884094 222.028610,658.223206 220.251129,663.642578 
	C218.645187,668.538940 215.212402,671.420288 210.094635,671.988220 
	C204.983368,672.555542 200.983505,670.496826 198.286346,666.131775 
	C195.595352,661.776794 196.361252,655.488708 199.899963,651.785034 
	C204.050980,647.440369 209.074570,646.826416 215.703476,650.106445 
M209.296494,652.025085 
	C204.608627,651.936584 201.731506,654.283569 200.961258,658.802368 
	C200.265900,662.881775 202.045776,665.993103 205.935867,667.472534 
	C209.833847,668.955017 213.132156,667.674805 215.457642,664.307678 
	C218.669739,659.656799 216.378677,654.580750 209.296494,652.025085 
z"/>
<path fill="#F1AEBB" opacity="1.000000" stroke="none" 
	d="
M258.999817,657.919067 
	C269.491547,657.916626 279.484772,657.833862 289.473419,658.009155 
	C290.932068,658.034668 292.369141,659.291077 293.816193,659.977966 
	C292.316437,660.643494 290.821503,661.875122 289.316162,661.888000 
	C272.164917,662.035034 255.011780,662.043518 237.860260,661.925964 
	C236.319519,661.915344 234.786575,660.768494 233.250031,660.149231 
	C234.839066,659.418823 236.407364,658.116028 238.020737,658.057556 
	C244.839783,657.810547 251.672241,657.933899 258.999817,657.919067 
z"/>
<path fill="#F1AEBB" opacity="1.000000" stroke="none" 
	d="
M261.999939,544.084351 
	C253.347046,544.083618 245.192307,544.169067 237.043121,543.994934 
	C235.725128,543.966797 234.431763,542.785400 233.126984,542.137146 
	C234.423599,541.433533 235.715240,540.128052 237.017578,540.117310 
	C254.653275,539.971497 272.290771,539.960449 289.926483,540.091797 
	C291.162994,540.101013 292.389191,541.492371 293.620178,542.241089 
	C292.397858,542.840698 291.184326,543.938782 289.951813,543.960510 
	C280.803314,544.121887 271.651031,544.069519 261.999939,544.084351 
z"/>
<path fill="#1262E4" opacity="1.000000" stroke="none" 
	d="
M905.612488,537.584595 
	C910.057373,537.173218 914.172424,536.949341 918.279114,537.053223 
	C922.354797,537.156250 925.123840,540.240540 925.296875,544.539368 
	C925.469116,548.819519 924.206055,552.205994 919.309875,552.628174 
	C914.758240,553.020569 910.180847,553.113647 905.278992,553.355042 
	C905.278992,547.704590 905.278992,542.810181 905.612488,537.584595 
z"/>
<path fill="#1262E4" opacity="1.000000" stroke="none" 
	d="
M822.677734,569.325989 
	C816.494141,562.240112 815.231445,553.711670 819.244934,545.977417 
	C823.112915,538.523499 829.751648,536.448059 837.649048,536.840637 
	C844.235168,537.167969 848.579590,540.895020 851.161499,546.367920 
	C854.385620,553.202087 854.174072,560.310425 849.935791,566.799316 
	C843.935303,575.985962 832.463867,577.078003 822.677734,569.325989 
z"/>
<path fill="#1E66E2" opacity="1.000000" stroke="none" 
	d="
M876.036865,665.150146 
	C874.341125,665.021240 873.098328,664.892639 871.855591,664.764038 
	C871.652100,664.296875 871.448608,663.829651 871.245178,663.362427 
	C872.970764,662.345520 874.685913,660.553040 876.424927,660.529541 
	C878.167786,660.505920 879.934509,662.248047 881.690735,663.216187 
	C881.508362,663.747803 881.326050,664.279419 881.143677,664.810974 
	C879.592407,664.924133 878.041138,665.037292 876.036865,665.150146 
z"/>
<path fill="#1E66E2" opacity="1.000000" stroke="none" 
	d="
M657.694336,665.108887 
	C656.611328,662.464844 657.252136,661.005249 659.723877,660.565430 
	C662.872681,660.005066 665.515137,660.646912 666.091248,665.135681 
	C663.243652,665.135681 660.677368,665.135681 657.694336,665.108887 
z"/>
<path fill="#1E66E2" opacity="1.000000" stroke="none" 
	d="
M701.339172,660.756348 
	C702.604614,661.884766 703.500854,662.876587 705.175659,664.729919 
	C700.779419,664.729919 697.632385,664.729919 694.278381,664.729919 
	C694.938049,660.803101 697.395264,659.850647 701.339172,660.756348 
z"/>
<path fill="#1663E3" opacity="1.000000" stroke="none" 
	d="
M544.837036,665.030762 
	C546.077271,663.483948 547.553406,661.307190 549.372070,660.968262 
	C550.854614,660.691895 552.746887,662.613586 554.457458,663.560669 
	C554.243469,664.105591 554.029419,664.650452 553.815430,665.195312 
	C550.950623,665.195312 548.085876,665.195312 544.837036,665.030762 
z"/>
<path fill="#1663E3" opacity="1.000000" stroke="none" 
	d="
M971.873840,672.024902 
	C971.558472,670.831360 971.184326,670.024109 971.191772,669.220520 
	C971.222412,665.906372 971.777954,662.310120 975.674438,662.053589 
	C977.722473,661.918823 981.475708,663.854248 981.726562,665.321899 
	C982.216370,668.187195 981.730774,672.254822 979.913391,674.217224 
	C977.632874,676.679749 974.045715,675.769104 971.873840,672.024902 
z"/>
<path fill="#1E66E2" opacity="1.000000" stroke="none" 
	d="
M424.243500,670.936401 
	C426.428833,671.786011 428.191681,672.691284 429.954498,673.596558 
	C428.098480,674.837036 426.364746,676.411499 424.327637,677.157349 
	C423.487091,677.465027 421.995178,675.993713 420.799561,675.331543 
	C421.806702,673.885071 422.813873,672.438538 424.243500,670.936401 
z"/>
<path fill="#1E66E2" opacity="1.000000" stroke="none" 
	d="
M792.401794,662.029053 
	C798.755981,662.449951 801.717529,668.245178 798.547485,673.197205 
	C796.302551,676.704102 791.185791,676.506592 789.103027,672.832642 
	C787.026855,669.170349 788.122375,665.135315 792.401794,662.029053 
z"/>
<path fill="#1663E3" opacity="1.000000" stroke="none" 
	d="
M205.706146,628.822266 
	C201.257523,626.404663 199.777008,622.903015 201.251938,618.569458 
	C202.522827,614.835510 205.631714,613.132202 209.491669,613.463928 
	C213.443466,613.803467 215.799805,616.299316 216.580124,620.123840 
	C217.749939,625.857178 213.096420,629.730713 205.706146,628.822266 
z"/>
<path fill="#1663E3" opacity="1.000000" stroke="none" 
	d="
M206.633575,588.505005 
	C201.898209,586.747681 199.628906,583.358154 201.124588,579.111572 
	C201.993668,576.643921 204.796509,573.990723 207.305893,573.157166 
	C211.811630,571.660522 216.265106,575.466248 216.678986,580.147705 
	C217.127823,585.224304 213.207672,588.657837 206.633575,588.505005 
z"/>
<path fill="#1663E3" opacity="1.000000" stroke="none" 
	d="
M207.396774,534.215210 
	C213.804199,534.765137 217.240479,538.260376 216.593491,543.111328 
	C216.002396,547.543213 211.850372,550.671509 207.324249,549.999634 
	C203.354034,549.410156 201.141663,546.895752 200.757187,543.047974 
	C200.298050,538.453064 202.575928,535.527344 207.396774,534.215210 
z"/>
<path fill="#1663E3" opacity="1.000000" stroke="none" 
	d="
M209.691132,652.067139 
	C216.378677,654.580750 218.669739,659.656799 215.457642,664.307678 
	C213.132156,667.674805 209.833847,668.955017 205.935867,667.472534 
	C202.045776,665.993103 200.265900,662.881775 200.961258,658.802368 
	C201.731506,654.283569 204.608627,651.936584 209.691132,652.067139 
z"/>
</svg>